<svg xmlns="http://www.w3.org/2000/svg" xmlns:xlink="http://www.w3.org/1999/xlink" width="220" zoomAndPan="magnify" viewBox="0 0 165 82.499998" height="110" preserveAspectRatio="xMidYMid meet" version="1.0"><defs><clipPath id="d7e421c9bd"><path d="M 0.496094 0 L 164.503906 0 L 164.503906 82.003906 L 0.496094 82.003906 Z M 0.496094 0 " clip-rule="nonzero"/></clipPath><clipPath id="da096cfe02"><path d="M 8.898438 19.53125 L 26 19.53125 L 26 58 L 8.898438 58 Z M 8.898438 19.53125 " clip-rule="nonzero"/></clipPath><clipPath id="419c740870"><path d="M 25 19.53125 L 42 19.53125 L 42 58 L 25 58 Z M 25 19.53125 " clip-rule="nonzero"/></clipPath><clipPath id="01ca1578e8"><path d="M 25 54 L 34 54 L 34 62.769531 L 25 62.769531 Z M 25 54 " clip-rule="nonzero"/></clipPath><clipPath id="7a3d8fe25e"><path d="M 17 54 L 26 54 L 26 62.769531 L 17 62.769531 Z M 17 54 " clip-rule="nonzero"/></clipPath><clipPath id="c3dd060d55"><path d="M 141 35 L 156.101562 35 L 156.101562 52 L 141 52 Z M 141 35 " clip-rule="nonzero"/></clipPath></defs><g clip-path="url(#d7e421c9bd)"><path fill="#ffffff" d="M 0.496094 0 L 164.503906 0 L 164.503906 82.003906 L 0.496094 82.003906 Z M 0.496094 0 " fill-opacity="1" fill-rule="nonzero"/></g><path fill="#4fc1e3" d="M 14.152344 40.671875 L 25.253906 50.085938 L 25.253906 40.671875 Z M 14.152344 40.671875 " fill-opacity="1" fill-rule="nonzero"/><g clip-path="url(#da096cfe02)"><path fill="#575656" d="M 8.898438 29.042969 L 8.898438 48.0625 L 25.253906 57.570312 L 25.253906 53.992188 L 11.976562 46.269531 L 11.976562 30.832031 L 25.253906 23.109375 L 25.253906 19.53125 Z M 8.898438 29.042969 " fill-opacity="1" fill-rule="nonzero"/></g><g clip-path="url(#419c740870)"><path fill="#575656" d="M 38.53125 30.832031 L 38.53125 46.269531 L 25.253906 53.992188 L 25.253906 57.570312 L 41.609375 48.0625 L 41.609375 29.042969 L 25.253906 19.53125 L 25.253906 23.109375 Z M 38.53125 30.832031 " fill-opacity="1" fill-rule="nonzero"/></g><path fill="#4fc1e3" d="M 25.253906 25.644531 L 25.253906 38.550781 L 36.351562 38.550781 L 36.351562 32.097656 Z M 25.253906 25.644531 " fill-opacity="1" fill-rule="nonzero"/><path fill="#4fc1e3" d="M 14.152344 32.097656 L 14.152344 38.550781 L 25.253906 38.550781 L 25.253906 25.644531 Z M 14.152344 32.097656 " fill-opacity="1" fill-rule="nonzero"/><g clip-path="url(#01ca1578e8)"><path fill="#4fc1e3" d="M 33.394531 54.777344 L 33.394531 58.359375 L 25.253906 63.089844 L 25.253906 59.511719 Z M 33.394531 54.777344 " fill-opacity="1" fill-rule="nonzero"/></g><g clip-path="url(#7a3d8fe25e)"><path fill="#4fc1e3" d="M 25.253906 59.511719 L 25.253906 63.089844 L 17.078125 58.339844 L 17.078125 54.757812 Z M 25.253906 59.511719 " fill-opacity="1" fill-rule="nonzero"/></g><g clip-path="url(#c3dd060d55)"><path fill="#4fc1e3" d="M 154.550781 47.234375 C 154.550781 48.589844 153.558594 49.695312 152.34375 49.695312 L 145.316406 49.695312 C 144.097656 49.695312 143.109375 48.589844 143.109375 47.234375 L 143.109375 39.414062 C 143.109375 38.058594 144.097656 36.953125 145.316406 36.953125 L 152.34375 36.953125 C 153.558594 36.953125 154.550781 38.058594 154.550781 39.414062 Z M 152.34375 35.226562 L 145.316406 35.226562 C 143.242188 35.226562 141.554688 37.105469 141.554688 39.414062 L 141.554688 47.234375 C 141.554688 49.542969 143.242188 51.421875 145.316406 51.421875 L 152.34375 51.421875 C 154.417969 51.421875 156.101562 49.542969 156.101562 47.234375 L 156.101562 39.414062 C 156.101562 37.105469 154.417969 35.226562 152.34375 35.226562 Z M 152.34375 35.226562 " fill-opacity="1" fill-rule="nonzero"/></g><path fill="#4fc1e3" d="M 138.261719 43.328125 L 138.261719 47.238281 C 138.261719 48.59375 137.269531 49.695312 136.050781 49.695312 L 129.027344 49.695312 C 127.808594 49.695312 126.816406 48.59375 126.816406 47.238281 L 126.816406 39.421875 C 126.816406 38.066406 127.808594 36.964844 129.027344 36.964844 L 136.050781 36.964844 C 137.269531 36.964844 138.261719 38.066406 138.261719 39.421875 Z M 138.261719 31.191406 L 138.261719 36.039062 C 137.640625 35.535156 136.875 35.238281 136.050781 35.238281 L 129.027344 35.238281 C 126.953125 35.238281 125.265625 37.117188 125.265625 39.421875 L 125.265625 47.238281 C 125.265625 49.542969 126.953125 51.421875 129.027344 51.421875 L 136.050781 51.421875 C 138.125 51.421875 139.8125 49.542969 139.8125 47.238281 L 139.8125 31.191406 Z M 138.261719 31.191406 " fill-opacity="1" fill-rule="nonzero"/><path fill="#4fc1e3" d="M 121.976562 35.269531 L 123.523438 35.269531 L 123.523438 51.417969 L 121.976562 51.417969 Z M 121.976562 35.269531 " fill-opacity="1" fill-rule="nonzero"/><path fill="#4fc1e3" d="M 121.953125 31.195312 L 123.503906 31.195312 L 123.503906 32.75 L 121.953125 32.75 Z M 121.953125 31.195312 " fill-opacity="1" fill-rule="nonzero"/><path fill="#4fc1e3" d="M 85.960938 46.511719 L 85.960938 47.242188 C 85.960938 48.597656 84.96875 49.699219 83.753906 49.699219 L 76.726562 49.699219 C 75.507812 49.699219 74.519531 48.597656 74.519531 47.242188 L 74.519531 39.417969 C 74.519531 38.0625 75.507812 36.960938 76.726562 36.960938 L 83.753906 36.960938 C 84.96875 36.960938 85.960938 38.0625 85.960938 39.417969 L 85.960938 40.945312 L 87.511719 40.945312 L 87.511719 39.417969 C 87.511719 37.109375 85.824219 35.234375 83.753906 35.234375 L 76.726562 35.234375 C 74.652344 35.234375 72.964844 37.109375 72.964844 39.417969 L 72.964844 47.242188 C 72.964844 49.550781 74.652344 51.429688 76.726562 51.429688 L 83.753906 51.429688 C 85.824219 51.429688 87.511719 49.550781 87.511719 47.242188 L 87.511719 46.511719 Z M 85.960938 46.511719 " fill-opacity="1" fill-rule="nonzero"/><path fill="#4fc1e3" d="M 89.273438 31.191406 L 90.820312 31.191406 L 90.820312 51.421875 L 89.273438 51.421875 Z M 89.273438 31.191406 " fill-opacity="1" fill-rule="nonzero"/><path fill="#4fc1e3" d="M 90.828125 39.414062 C 90.828125 38.058594 91.816406 36.953125 93.035156 36.953125 L 100.058594 36.953125 C 101.277344 36.953125 102.269531 38.058594 102.269531 39.414062 L 102.269531 40.941406 L 103.820312 40.941406 L 103.820312 39.414062 C 103.820312 37.105469 102.132812 35.226562 100.058594 35.226562 L 93.035156 35.226562 C 90.960938 35.226562 89.273438 37.105469 89.273438 39.414062 L 89.273438 47.09375 L 90.828125 47.09375 Z M 90.828125 39.414062 " fill-opacity="1" fill-rule="nonzero"/><path fill="#4fc1e3" d="M 102.269531 39.328125 L 103.816406 39.328125 L 103.816406 51.421875 L 102.269531 51.421875 Z M 102.269531 39.328125 " fill-opacity="1" fill-rule="nonzero"/><path fill="#4fc1e3" d="M 53.136719 35.25 C 51.0625 35.25 49.375 37.125 49.375 39.425781 L 50.925781 39.425781 C 50.925781 38.074219 51.917969 36.972656 53.136719 36.972656 L 56.648438 36.972656 L 56.648438 35.25 Z M 53.136719 35.25 " fill-opacity="1" fill-rule="nonzero"/><path fill="#4fc1e3" d="M 60.160156 35.25 L 56.648438 35.25 L 56.648438 36.972656 L 60.160156 36.972656 C 61.378906 36.972656 62.367188 38.074219 62.367188 39.425781 L 62.367188 42.46875 L 55.878906 42.46875 L 55.878906 44.082031 L 62.371094 44.082031 L 62.371094 47.121094 C 62.371094 48.476562 61.378906 49.578125 60.160156 49.578125 L 53.136719 49.578125 C 51.917969 49.578125 50.925781 48.476562 50.925781 47.121094 L 50.925781 46.082031 L 49.375 46.082031 L 49.375 47.230469 C 49.375 49.535156 51.0625 51.410156 53.132812 51.410156 L 60.160156 51.410156 C 62.234375 51.410156 63.921875 49.535156 63.921875 47.230469 L 63.921875 39.425781 C 63.921875 37.125 62.234375 35.25 60.160156 35.25 Z M 60.160156 35.25 " fill-opacity="1" fill-rule="nonzero"/><path fill="#4fc1e3" d="M 50.988281 45.851562 C 51.214844 44.839844 52.089844 44.082031 53.132812 44.082031 L 56.648438 44.082031 L 56.648438 42.464844 L 53.132812 42.464844 C 51.0625 42.464844 49.375 44.222656 49.375 46.378906 L 50.925781 46.378906 C 50.925781 46.375 50.925781 46.375 50.925781 46.371094 L 50.925781 45.851562 Z M 50.988281 45.851562 " fill-opacity="1" fill-rule="nonzero"/><path fill="#4fc1e3" d="M 50.925781 45.851562 L 50.925781 46.371094 C 50.925781 46.195312 50.949219 46.019531 50.988281 45.851562 Z M 50.925781 45.851562 " fill-opacity="1" fill-rule="nonzero"/><path fill="#4fc1e3" d="M 116.351562 51.421875 C 118.425781 51.421875 120.113281 49.546875 120.113281 47.246094 L 118.5625 47.246094 C 118.5625 48.597656 117.570312 49.699219 116.351562 49.699219 L 112.839844 49.699219 L 112.839844 51.421875 Z M 116.351562 51.421875 " fill-opacity="1" fill-rule="nonzero"/><path fill="#4fc1e3" d="M 109.328125 51.421875 L 112.839844 51.421875 L 112.839844 49.699219 L 109.328125 49.699219 C 108.109375 49.699219 107.117188 48.597656 107.117188 47.246094 L 107.117188 44.203125 L 113.609375 44.203125 L 113.609375 42.589844 L 107.117188 42.589844 L 107.117188 39.550781 C 107.117188 38.195312 108.109375 37.09375 109.328125 37.09375 L 116.351562 37.09375 C 117.570312 37.09375 118.5625 38.195312 118.5625 39.550781 L 118.5625 40.585938 L 120.113281 40.585938 L 120.113281 39.441406 C 120.113281 37.136719 118.425781 35.261719 116.351562 35.261719 L 109.328125 35.261719 C 107.253906 35.261719 105.566406 37.136719 105.566406 39.441406 L 105.566406 47.246094 C 105.566406 49.546875 107.253906 51.421875 109.328125 51.421875 Z M 109.328125 51.421875 " fill-opacity="1" fill-rule="nonzero"/><path fill="#4fc1e3" d="M 118.5 40.816406 C 118.269531 41.832031 117.394531 42.589844 116.351562 42.589844 L 112.839844 42.589844 L 112.839844 44.203125 L 116.351562 44.203125 C 118.425781 44.203125 120.113281 42.449219 120.113281 40.292969 L 118.5625 40.292969 L 118.5625 40.816406 Z M 118.5 40.816406 " fill-opacity="1" fill-rule="nonzero"/><path fill="#4fc1e3" d="M 118.5625 40.816406 L 118.5625 40.296875 C 118.558594 40.476562 118.539062 40.648438 118.5 40.816406 Z M 118.5625 40.816406 " fill-opacity="1" fill-rule="nonzero"/><path fill="#4fc1e3" d="M 65.6875 51.425781 L 67.234375 51.425781 L 67.234375 47.097656 L 65.6875 47.097656 Z M 65.6875 51.425781 " fill-opacity="1" fill-rule="nonzero"/><path fill="#4fc1e3" d="M 69.449219 36.957031 L 71.199219 36.957031 L 71.199219 35.230469 L 69.449219 35.230469 C 67.375 35.230469 65.6875 37.109375 65.6875 39.417969 L 65.6875 39.875 L 67.234375 39.875 L 67.234375 47.09375 L 67.238281 47.09375 L 67.238281 39.417969 C 67.238281 38.0625 68.230469 36.957031 69.449219 36.957031 Z M 69.449219 36.957031 " fill-opacity="1" fill-rule="nonzero"/><path fill="#4fc1e3" d="M 65.6875 47.09375 L 67.234375 47.09375 L 67.234375 39.875 L 65.6875 39.875 Z M 65.6875 47.09375 " fill-opacity="1" fill-rule="nonzero"/></svg>