<svg xmlns="http://www.w3.org/2000/svg" xmlns:xlink="http://www.w3.org/1999/xlink" width="220" zoomAndPan="magnify" viewBox="0 0 165 82.499998" height="110" preserveAspectRatio="xMidYMid meet" version="1.0"><defs><clipPath id="cc7aaf40a6"><path d="M 0.496094 0 L 164.503906 0 L 164.503906 82.003906 L 0.496094 82.003906 Z M 0.496094 0 " clip-rule="nonzero"/></clipPath></defs><g clip-path="url(#cc7aaf40a6)"><path fill="#ffffff" d="M 0.496094 0 L 164.503906 0 L 164.503906 82.003906 L 0.496094 82.003906 Z M 0.496094 0 " fill-opacity="1" fill-rule="nonzero"/></g><path fill="#161616" d="M 19.71875 53.554688 C 16.800781 53.554688 14.488281 52.726562 12.785156 51.097656 C 11.082031 49.46875 10.230469 47.101562 10.230469 44.058594 L 10.230469 38.3125 C 10.230469 35.269531 11.082031 32.90625 12.785156 31.277344 C 14.488281 29.648438 16.800781 28.816406 19.71875 28.816406 C 22.609375 28.816406 24.859375 29.617188 26.410156 31.214844 C 27.992188 32.8125 28.78125 34.996094 28.78125 37.789062 L 28.78125 38.003906 L 24.433594 38.003906 L 24.433594 37.667969 C 24.433594 36.253906 24.039062 35.117188 23.277344 34.195312 C 22.515625 33.304688 21.332031 32.84375 19.71875 32.84375 C 18.136719 32.84375 16.921875 33.335938 16.007812 34.316406 C 15.125 35.300781 14.671875 36.621094 14.671875 38.28125 L 14.671875 44.121094 C 14.671875 45.78125 15.125 47.101562 16.007812 48.085938 C 16.890625 49.066406 18.136719 49.558594 19.71875 49.558594 C 21.300781 49.558594 22.484375 49.097656 23.277344 48.175781 C 24.039062 47.253906 24.433594 46.117188 24.433594 44.734375 L 24.433594 44.121094 L 28.8125 44.121094 L 28.8125 44.582031 C 28.8125 47.378906 28.019531 49.558594 26.441406 51.15625 C 24.859375 52.753906 22.609375 53.554688 19.71875 53.554688 Z M 19.71875 53.554688 " fill-opacity="1" fill-rule="nonzero"/><path fill="#161616" d="M 38.605469 53.554688 C 36.933594 53.554688 35.441406 53.214844 34.132812 52.539062 C 32.828125 51.863281 31.761719 50.882812 31 49.589844 C 30.242188 48.300781 29.847656 46.761719 29.847656 44.949219 L 29.847656 44.367188 C 29.847656 42.554688 30.242188 41.015625 31 39.726562 C 31.761719 38.4375 32.796875 37.453125 34.132812 36.777344 C 35.441406 36.101562 36.933594 35.761719 38.605469 35.761719 C 40.277344 35.761719 41.769531 36.101562 43.074219 36.777344 C 44.382812 37.453125 45.449219 38.4375 46.207031 39.726562 C 46.96875 41.015625 47.363281 42.554688 47.363281 44.367188 L 47.363281 44.917969 C 47.363281 46.734375 46.96875 48.269531 46.207031 49.558594 C 45.449219 50.851562 44.414062 51.832031 43.074219 52.507812 C 41.738281 53.214844 40.246094 53.554688 38.605469 53.554688 Z M 38.605469 49.742188 C 39.914062 49.742188 40.976562 49.3125 41.828125 48.484375 C 42.679688 47.625 43.105469 46.425781 43.105469 44.828125 L 43.105469 44.488281 C 43.105469 42.890625 42.679688 41.691406 41.859375 40.832031 C 41.007812 39.972656 39.941406 39.574219 38.605469 39.574219 C 37.296875 39.574219 36.234375 40.003906 35.382812 40.832031 C 34.53125 41.691406 34.105469 42.890625 34.105469 44.488281 L 34.105469 44.828125 C 34.105469 46.425781 34.53125 47.625 35.382812 48.484375 C 36.234375 49.3125 37.296875 49.742188 38.605469 49.742188 Z M 38.605469 49.742188 " fill-opacity="1" fill-rule="nonzero"/><path fill="#161616" d="M 48.398438 53.0625 L 48.398438 29.277344 L 56.820312 29.277344 L 61.503906 49.988281 L 62.113281 49.988281 L 62.113281 29.277344 L 66.492188 29.277344 L 66.492188 53.0625 L 58.070312 53.0625 L 53.386719 32.351562 L 52.777344 32.351562 L 52.777344 53.0625 Z M 48.398438 53.0625 " fill-opacity="1" fill-rule="nonzero"/><path fill="#161616" d="M 81.335938 31.707031 C 79.691406 30.078125 77.289062 29.277344 74.125 29.277344 L 67.527344 29.277344 L 67.527344 53.0625 L 74.125 53.0625 C 77.289062 53.0625 79.691406 52.265625 81.335938 50.636719 C 82.976562 49.007812 83.796875 46.609375 83.796875 43.414062 L 83.796875 38.925781 C 83.796875 35.730469 82.976562 33.335938 81.335938 31.707031 Z M 79.359375 43.566406 C 79.359375 45.289062 78.933594 46.609375 78.109375 47.59375 C 77.289062 48.546875 75.980469 49.007812 74.1875 49.007812 L 71.96875 49.007812 L 71.96875 33.367188 L 74.1875 33.367188 C 75.980469 33.367188 77.289062 33.828125 78.109375 34.777344 C 78.933594 35.730469 79.359375 37.054688 79.359375 38.804688 Z M 79.359375 43.566406 " fill-opacity="1" fill-rule="nonzero"/><path fill="#161616" d="M 84.863281 53.0625 L 84.863281 29.277344 L 99.976562 29.277344 L 99.976562 33.367188 L 89.300781 33.367188 L 89.300781 39.050781 L 99.066406 39.050781 L 99.066406 43.136719 L 89.300781 43.136719 L 89.300781 49.007812 L 100.191406 49.007812 L 100.191406 53.09375 L 84.863281 53.09375 Z M 84.863281 53.0625 " fill-opacity="1" fill-rule="nonzero"/><path fill="#161616" d="M 101.042969 53.0625 L 101.042969 29.277344 L 109.464844 29.277344 L 114.148438 49.988281 L 114.757812 49.988281 L 114.757812 29.277344 L 119.136719 29.277344 L 119.136719 53.0625 L 110.714844 53.0625 L 106.03125 32.351562 L 105.421875 32.351562 L 105.421875 53.0625 Z M 101.042969 53.0625 " fill-opacity="1" fill-rule="nonzero"/><path fill="#161616" d="M 129.417969 53.554688 C 127.59375 53.554688 126.011719 53.214844 124.613281 52.570312 C 123.210938 51.925781 122.148438 50.972656 121.359375 49.742188 C 120.566406 48.515625 120.171875 47.039062 120.171875 45.320312 L 120.171875 44.367188 L 124.550781 44.367188 L 124.550781 45.320312 C 124.550781 46.734375 124.976562 47.808594 125.859375 48.515625 C 126.742188 49.222656 127.925781 49.589844 129.417969 49.589844 C 130.9375 49.589844 132.0625 49.28125 132.824219 48.667969 C 133.582031 48.054688 133.949219 47.285156 133.949219 46.332031 C 133.949219 45.6875 133.765625 45.132812 133.402344 44.734375 C 133.035156 44.335938 132.488281 43.996094 131.789062 43.722656 C 131.089844 43.476562 130.238281 43.230469 129.203125 42.984375 L 128.445312 42.800781 C 126.832031 42.429688 125.433594 41.96875 124.308594 41.417969 C 123.152344 40.863281 122.269531 40.125 121.660156 39.234375 C 121.054688 38.34375 120.75 37.144531 120.75 35.699219 C 120.75 34.257812 121.082031 33.027344 121.785156 31.984375 C 122.453125 30.9375 123.425781 30.167969 124.671875 29.617188 C 125.917969 29.0625 127.378906 28.785156 129.050781 28.785156 C 130.722656 28.785156 132.214844 29.0625 133.554688 29.648438 C 134.890625 30.230469 135.894531 31.089844 136.65625 32.230469 C 137.414062 33.367188 137.78125 34.808594 137.78125 36.53125 L 137.78125 37.542969 L 133.402344 37.542969 L 133.402344 36.53125 C 133.402344 35.640625 133.21875 34.902344 132.882812 34.347656 C 132.550781 33.796875 132.03125 33.394531 131.394531 33.121094 C 130.753906 32.875 129.964844 32.71875 129.082031 32.71875 C 127.742188 32.71875 126.742188 32.964844 126.101562 33.488281 C 125.464844 34.011719 125.128906 34.6875 125.128906 35.578125 C 125.128906 36.160156 125.28125 36.652344 125.585938 37.082031 C 125.890625 37.484375 126.34375 37.820312 126.953125 38.097656 C 127.5625 38.375 128.320312 38.621094 129.265625 38.804688 L 130.023438 38.988281 C 131.699219 39.359375 133.15625 39.820312 134.40625 40.371094 C 135.652344 40.925781 136.625 41.691406 137.324219 42.613281 C 138.023438 43.535156 138.359375 44.734375 138.359375 46.179688 C 138.359375 47.625 137.992188 48.914062 137.261719 49.988281 C 136.535156 51.097656 135.5 51.957031 134.160156 52.570312 C 132.792969 53.214844 131.210938 53.554688 129.417969 53.554688 Z M 129.417969 53.554688 " fill-opacity="1" fill-rule="nonzero"/><path fill="#161616" d="M 139.363281 53.0625 L 139.363281 29.277344 L 154.476562 29.277344 L 154.476562 33.367188 L 143.800781 33.367188 L 143.800781 39.050781 L 153.5625 39.050781 L 153.5625 43.136719 L 143.800781 43.136719 L 143.800781 49.007812 L 154.691406 49.007812 L 154.691406 53.09375 L 139.363281 53.09375 Z M 139.363281 53.0625 " fill-opacity="1" fill-rule="nonzero"/></svg>