<svg xmlns="http://www.w3.org/2000/svg" xmlns:xlink="http://www.w3.org/1999/xlink" width="220" zoomAndPan="magnify" viewBox="0 0 165 82.499998" height="110" preserveAspectRatio="xMidYMid meet" version="1.0"><defs><clipPath id="21991bfc75"><path d="M 0.496094 0 L 164.503906 0 L 164.503906 82.003906 L 0.496094 82.003906 Z M 0.496094 0 " clip-rule="nonzero"/></clipPath><clipPath id="080b3dc518"><path d="M 125 27.335938 L 156.300781 27.335938 L 156.300781 51 L 125 51 Z M 125 27.335938 " clip-rule="nonzero"/></clipPath><clipPath id="d73c0d5223"><path d="M 8.699219 32 L 25 32 L 25 50 L 8.699219 50 Z M 8.699219 32 " clip-rule="nonzero"/></clipPath><clipPath id="3d880f6dc0"><path d="M 26 36 L 38 36 L 38 54.917969 L 26 54.917969 Z M 26 36 " clip-rule="nonzero"/></clipPath><clipPath id="8af9cf8e00"><path d="M 39 36 L 52 36 L 52 54.917969 L 39 54.917969 Z M 39 36 " clip-rule="nonzero"/></clipPath><clipPath id="c2ead98be4"><path d="M 73 36 L 86 36 L 86 54.917969 L 73 54.917969 Z M 73 36 " clip-rule="nonzero"/></clipPath></defs><g clip-path="url(#21991bfc75)"><path fill="#ffffff" d="M 0.496094 0 L 164.503906 0 L 164.503906 171.460938 L 0.496094 171.460938 Z M 0.496094 0 " fill-opacity="1" fill-rule="nonzero"/><path fill="#ffffff" d="M 0.496094 0 L 164.503906 0 L 164.503906 82.003906 L 0.496094 82.003906 Z M 0.496094 0 " fill-opacity="1" fill-rule="nonzero"/></g><g clip-path="url(#080b3dc518)"><path fill="#203053" d="M 152.367188 32.765625 C 150.070312 32.765625 148.425781 34.8125 146.734375 37.089844 C 145.6875 32.257812 144.515625 27.425781 140.800781 27.425781 C 137.089844 27.425781 135.917969 32.257812 134.882812 37.089844 C 133.203125 34.8125 131.550781 32.765625 129.253906 32.765625 C 127.792969 32.765625 125.320312 33.773438 125.320312 37.53125 L 125.320312 44.371094 C 125.320312 48.058594 127.269531 48.964844 128.441406 49.269531 C 130.460938 49.800781 135.320312 50.289062 140.792969 50.289062 C 146.265625 50.289062 151.128906 49.800781 153.144531 49.269531 C 154.316406 48.964844 156.269531 48.058594 156.269531 44.371094 L 156.269531 37.53125 C 156.269531 33.773438 153.796875 32.765625 152.332031 32.765625 M 140.800781 29.546875 C 143.027344 29.546875 143.875 33.980469 145.058594 39.3125 C 143.757812 40.921875 142.382812 42.226562 140.800781 42.226562 C 139.222656 42.226562 137.828125 40.917969 136.566406 39.3125 C 137.671875 34.335938 138.523438 29.546875 140.824219 29.546875 M 127.429688 44.371094 L 127.429688 37.53125 C 127.429688 35.15625 128.691406 34.898438 129.253906 34.898438 C 130.871094 34.898438 132.617188 37.628906 134.273438 39.816406 C 133.085938 44.789062 131.84375 47.804688 128.910156 47.191406 C 128.144531 46.980469 127.429688 46.492188 127.429688 44.371094 M 133.203125 47.824219 C 134.464844 46.402344 135.304688 44.183594 135.9375 41.832031 C 137.292969 43.265625 138.859375 44.347656 140.800781 44.347656 C 142.746094 44.347656 144.304688 43.265625 145.664062 41.832031 C 146.296875 44.183594 147.125 46.402344 148.421875 47.824219 C 146.152344 48.039062 143.421875 48.160156 140.800781 48.160156 C 138.183594 48.160156 135.449219 48.039062 133.179688 47.824219 M 154.175781 44.371094 C 154.175781 46.492188 153.457031 46.980469 152.695312 47.191406 C 149.75 47.820312 148.515625 44.789062 147.34375 39.816406 C 149.003906 37.628906 150.746094 34.898438 152.367188 34.898438 C 152.914062 34.898438 154.191406 35.15625 154.191406 37.53125 Z M 154.175781 44.371094 " fill-opacity="1" fill-rule="nonzero"/></g><g clip-path="url(#d73c0d5223)"><path fill="#203053" d="M 9.171875 49.53125 C 9.042969 49.53125 8.929688 49.484375 8.839844 49.386719 C 8.742188 49.289062 8.695312 49.167969 8.699219 49.027344 C 8.699219 48.949219 8.714844 48.878906 8.742188 48.804688 L 14.585938 33.257812 C 14.628906 33.089844 14.714844 32.949219 14.847656 32.832031 C 15 32.707031 15.175781 32.652344 15.371094 32.664062 L 17.476562 32.664062 C 17.671875 32.652344 17.847656 32.707031 18 32.832031 C 18.132812 32.949219 18.226562 33.09375 18.289062 33.257812 L 24.101562 48.804688 C 24.117188 48.878906 24.125 48.953125 24.125 49.027344 C 24.128906 49.167969 24.082031 49.289062 23.984375 49.386719 C 23.890625 49.484375 23.78125 49.53125 23.652344 49.53125 L 22 49.53125 C 21.828125 49.546875 21.679688 49.496094 21.550781 49.375 C 21.46875 49.289062 21.40625 49.1875 21.359375 49.078125 L 20.140625 45.902344 L 12.679688 45.902344 L 11.484375 49.078125 C 11.4375 49.183594 11.371094 49.277344 11.285156 49.359375 C 11.152344 49.476562 10.996094 49.527344 10.820312 49.515625 Z M 13.441406 43.511719 L 19.382812 43.511719 L 16.398438 35.519531 Z M 13.441406 43.511719 " fill-opacity="1" fill-rule="nonzero"/></g><g clip-path="url(#3d880f6dc0)"><path fill="#203053" d="M 26.582031 54.105469 C 26.429688 54.109375 26.296875 54.058594 26.1875 53.949219 C 26.078125 53.835938 26.027344 53.703125 26.035156 53.546875 L 26.035156 37.566406 C 26.027344 37.414062 26.078125 37.28125 26.1875 37.167969 C 26.296875 37.058594 26.429688 37.007812 26.582031 37.015625 L 28.082031 37.015625 C 28.238281 37.007812 28.371094 37.058594 28.480469 37.167969 C 28.589844 37.277344 28.640625 37.410156 28.636719 37.566406 L 28.636719 38.578125 C 29.054688 38.046875 29.5625 37.625 30.15625 37.304688 C 30.890625 36.921875 31.671875 36.742188 32.496094 36.765625 C 33.273438 36.742188 34.023438 36.882812 34.738281 37.191406 C 35.347656 37.46875 35.863281 37.867188 36.285156 38.390625 C 36.714844 38.933594 37.03125 39.535156 37.226562 40.199219 C 37.449219 40.921875 37.574219 41.65625 37.597656 42.414062 C 37.597656 42.683594 37.625 42.96875 37.625 43.261719 C 37.625 43.554688 37.625 43.832031 37.597656 44.109375 C 37.589844 44.859375 37.472656 45.589844 37.253906 46.300781 C 37.046875 46.957031 36.734375 47.554688 36.3125 48.09375 C 35.886719 48.625 35.367188 49.035156 34.75 49.320312 C 34.03125 49.636719 33.28125 49.785156 32.496094 49.765625 C 31.703125 49.789062 30.953125 49.625 30.242188 49.273438 C 29.652344 48.960938 29.152344 48.535156 28.753906 48 L 28.753906 53.519531 C 28.757812 53.675781 28.707031 53.808594 28.597656 53.917969 C 28.480469 54.03125 28.339844 54.082031 28.175781 54.074219 Z M 31.832031 47.507812 C 32.472656 47.546875 33.058594 47.382812 33.585938 47.015625 C 34.015625 46.679688 34.320312 46.257812 34.503906 45.742188 C 34.699219 45.171875 34.8125 44.585938 34.839844 43.984375 C 34.867188 43.515625 34.867188 43.050781 34.839844 42.585938 C 34.8125 41.984375 34.699219 41.398438 34.503906 40.828125 C 34.320312 40.3125 34.015625 39.890625 33.585938 39.554688 C 33.058594 39.179688 32.476562 39.007812 31.832031 39.035156 C 31.539062 39.015625 31.25 39.042969 30.964844 39.117188 C 30.679688 39.191406 30.417969 39.3125 30.171875 39.472656 C 29.925781 39.632812 29.710938 39.832031 29.527344 40.0625 C 29.34375 40.292969 29.203125 40.550781 29.101562 40.828125 C 28.902344 41.34375 28.789062 41.878906 28.757812 42.429688 C 28.738281 42.710938 28.730469 43.019531 28.730469 43.347656 C 28.730469 43.683594 28.730469 43.996094 28.757812 44.285156 C 28.773438 44.820312 28.894531 45.328125 29.113281 45.8125 C 29.339844 46.308594 29.671875 46.714844 30.117188 47.027344 C 30.636719 47.375 31.207031 47.535156 31.832031 47.507812 Z M 31.832031 47.507812 " fill-opacity="1" fill-rule="nonzero"/></g><g clip-path="url(#8af9cf8e00)"><path fill="#203053" d="M 40.542969 54.105469 C 40.390625 54.109375 40.257812 54.054688 40.152344 53.945312 C 40.042969 53.835938 39.992188 53.703125 39.996094 53.546875 L 39.996094 37.566406 C 39.988281 37.414062 40.039062 37.28125 40.148438 37.171875 C 40.257812 37.0625 40.390625 37.007812 40.542969 37.015625 L 42.046875 37.015625 C 42.199219 37.011719 42.332031 37.0625 42.441406 37.167969 C 42.546875 37.277344 42.601562 37.414062 42.59375 37.566406 L 42.59375 38.578125 C 43.015625 38.046875 43.527344 37.621094 44.121094 37.304688 C 44.855469 36.921875 45.632812 36.742188 46.457031 36.765625 C 47.234375 36.742188 47.980469 36.882812 48.699219 37.191406 C 49.308594 37.46875 49.828125 37.867188 50.25 38.390625 C 50.675781 38.941406 50.988281 39.546875 51.179688 40.21875 C 51.398438 40.9375 51.523438 41.675781 51.550781 42.429688 C 51.550781 42.699219 51.550781 42.984375 51.550781 43.277344 C 51.550781 43.570312 51.550781 43.847656 51.550781 44.128906 C 51.539062 44.875 51.421875 45.605469 51.203125 46.316406 C 51 46.976562 50.683594 47.570312 50.257812 48.109375 C 49.835938 48.644531 49.316406 49.050781 48.699219 49.335938 C 47.980469 49.65625 47.226562 49.804688 46.445312 49.78125 C 45.652344 49.808594 44.902344 49.644531 44.195312 49.289062 C 43.601562 48.980469 43.101562 48.554688 42.699219 48.015625 L 42.699219 53.535156 C 42.707031 53.691406 42.652344 53.824219 42.542969 53.933594 C 42.425781 54.046875 42.285156 54.101562 42.125 54.09375 Z M 45.792969 47.507812 C 46.082031 47.535156 46.367188 47.511719 46.648438 47.4375 C 46.929688 47.367188 47.195312 47.25 47.4375 47.089844 C 47.679688 46.925781 47.886719 46.730469 48.0625 46.496094 C 48.242188 46.261719 48.375 46.007812 48.464844 45.726562 C 48.660156 45.164062 48.769531 44.582031 48.796875 43.984375 C 48.824219 43.515625 48.824219 43.050781 48.796875 42.585938 C 48.769531 41.984375 48.660156 41.398438 48.464844 40.828125 C 48.375 40.550781 48.242188 40.292969 48.0625 40.058594 C 47.886719 39.828125 47.679688 39.628906 47.4375 39.46875 C 47.195312 39.304688 46.929688 39.1875 46.648438 39.117188 C 46.367188 39.046875 46.082031 39.023438 45.792969 39.050781 C 45.5 39.027344 45.210938 39.054688 44.925781 39.128906 C 44.640625 39.203125 44.375 39.324219 44.128906 39.484375 C 43.882812 39.644531 43.667969 39.84375 43.484375 40.074219 C 43.300781 40.308594 43.160156 40.5625 43.058594 40.839844 C 42.863281 41.355469 42.746094 41.890625 42.714844 42.441406 C 42.714844 42.714844 42.691406 43.019531 42.691406 43.359375 C 42.691406 43.699219 42.691406 44.007812 42.714844 44.296875 C 42.730469 44.832031 42.847656 45.339844 43.070312 45.824219 C 43.296875 46.320312 43.628906 46.726562 44.070312 47.039062 C 44.59375 47.382812 45.167969 47.539062 45.792969 47.507812 Z M 45.792969 47.507812 " fill-opacity="1" fill-rule="nonzero"/></g><path fill="#203053" d="M 60.085938 49.769531 C 58.839844 49.808594 57.640625 49.589844 56.484375 49.121094 C 55.597656 48.753906 54.855469 48.1875 54.269531 47.421875 C 53.769531 46.765625 53.5 46.019531 53.457031 45.191406 C 53.457031 45.0625 53.503906 44.949219 53.597656 44.859375 C 53.699219 44.757812 53.816406 44.710938 53.957031 44.714844 L 55.640625 44.714844 C 55.796875 44.703125 55.9375 44.746094 56.058594 44.84375 C 56.15625 44.9375 56.238281 45.046875 56.300781 45.167969 C 56.414062 45.546875 56.605469 45.886719 56.871094 46.183594 C 57.207031 46.558594 57.609375 46.84375 58.074219 47.03125 C 58.714844 47.277344 59.378906 47.390625 60.0625 47.367188 C 61.320312 47.367188 62.246094 47.148438 62.84375 46.71875 C 63.132812 46.515625 63.359375 46.257812 63.515625 45.941406 C 63.675781 45.628906 63.746094 45.292969 63.734375 44.9375 C 63.753906 44.460938 63.597656 44.054688 63.261719 43.71875 C 62.820312 43.339844 62.328125 43.054688 61.78125 42.871094 C 61.117188 42.617188 60.25 42.339844 59.183594 42.050781 C 58.167969 41.792969 57.183594 41.429688 56.242188 40.96875 C 55.515625 40.628906 54.925781 40.121094 54.476562 39.453125 C 54.054688 38.742188 53.859375 37.972656 53.894531 37.144531 C 53.882812 36.261719 54.125 35.460938 54.621094 34.734375 C 55.15625 33.980469 55.847656 33.425781 56.695312 33.0625 C 57.726562 32.625 58.804688 32.421875 59.925781 32.449219 C 60.839844 32.433594 61.730469 32.578125 62.597656 32.871094 C 63.304688 33.109375 63.945312 33.472656 64.519531 33.953125 C 65 34.359375 65.386719 34.839844 65.683594 35.398438 C 65.9375 35.871094 66.078125 36.375 66.105469 36.914062 C 66.101562 37.039062 66.054688 37.148438 65.96875 37.242188 C 65.871094 37.351562 65.75 37.40625 65.605469 37.398438 L 63.863281 37.398438 C 63.730469 37.398438 63.605469 37.363281 63.492188 37.300781 C 63.355469 37.214844 63.265625 37.09375 63.21875 36.941406 C 63.089844 36.296875 62.75 35.808594 62.191406 35.46875 C 61.496094 35.035156 60.742188 34.835938 59.925781 34.867188 C 59.117188 34.832031 58.355469 35.011719 57.648438 35.410156 C 57.359375 35.589844 57.136719 35.832031 56.980469 36.136719 C 56.824219 36.441406 56.757812 36.765625 56.777344 37.109375 C 56.761719 37.574219 56.902344 37.980469 57.199219 38.335938 C 57.582031 38.722656 58.027344 39.007812 58.535156 39.183594 C 59.328125 39.496094 60.136719 39.765625 60.957031 39.992188 C 62.078125 40.246094 63.164062 40.605469 64.21875 41.070312 C 64.976562 41.390625 65.59375 41.886719 66.070312 42.5625 C 66.5 43.265625 66.695312 44.035156 66.664062 44.863281 C 66.6875 45.835938 66.414062 46.710938 65.84375 47.496094 C 65.242188 48.28125 64.476562 48.847656 63.554688 49.191406 C 62.433594 49.609375 61.277344 49.804688 60.085938 49.769531 Z M 60.085938 49.769531 " fill-opacity="1" fill-rule="nonzero"/><path fill="#203053" d="M 69.171875 34.800781 C 69.007812 34.808594 68.867188 34.757812 68.75 34.644531 C 68.640625 34.535156 68.589844 34.402344 68.59375 34.246094 L 68.59375 32.726562 C 68.585938 32.5625 68.636719 32.421875 68.75 32.304688 C 68.863281 32.183594 69.003906 32.125 69.171875 32.132812 L 70.984375 32.132812 C 71.148438 32.128906 71.289062 32.1875 71.402344 32.304688 C 71.523438 32.417969 71.582031 32.558594 71.570312 32.726562 L 71.570312 34.246094 C 71.578125 34.40625 71.519531 34.539062 71.402344 34.644531 C 71.285156 34.753906 71.144531 34.804688 70.984375 34.800781 Z M 69.3125 49.53125 C 69.152344 49.539062 69.011719 49.488281 68.894531 49.375 C 68.785156 49.265625 68.730469 49.132812 68.738281 48.976562 L 68.738281 37.566406 C 68.730469 37.414062 68.785156 37.277344 68.894531 37.167969 C 69.011719 37.058594 69.152344 37.007812 69.3125 37.015625 L 70.867188 37.015625 C 71.019531 37.007812 71.148438 37.0625 71.257812 37.171875 C 71.367188 37.28125 71.417969 37.414062 71.414062 37.566406 L 71.414062 48.976562 C 71.417969 49.132812 71.367188 49.265625 71.257812 49.375 C 71.148438 49.484375 71.019531 49.535156 70.867188 49.53125 Z M 69.3125 49.53125 " fill-opacity="1" fill-rule="nonzero"/><g clip-path="url(#c2ead98be4)"><path fill="#203053" d="M 79.574219 54.828125 C 78.621094 54.859375 77.699219 54.710938 76.804688 54.378906 C 76.175781 54.136719 75.613281 53.78125 75.121094 53.3125 C 74.746094 52.949219 74.453125 52.53125 74.242188 52.050781 C 74.101562 51.726562 74.007812 51.390625 73.96875 51.039062 C 73.941406 50.871094 73.992188 50.730469 74.113281 50.613281 C 74.226562 50.496094 74.367188 50.441406 74.535156 50.449219 L 76.15625 50.449219 C 76.285156 50.445312 76.40625 50.476562 76.515625 50.542969 C 76.640625 50.65625 76.71875 50.800781 76.75 50.96875 C 76.867188 51.226562 77.007812 51.46875 77.171875 51.703125 C 77.382812 52 77.652344 52.226562 77.984375 52.386719 C 78.460938 52.605469 78.960938 52.699219 79.484375 52.675781 C 80.070312 52.691406 80.636719 52.597656 81.1875 52.398438 C 81.660156 52.207031 82.011719 51.878906 82.238281 51.421875 C 82.515625 50.820312 82.636719 50.1875 82.605469 49.523438 L 82.605469 47.894531 C 82.179688 48.398438 81.667969 48.792969 81.074219 49.078125 C 80.355469 49.410156 79.601562 49.5625 78.8125 49.535156 C 78.027344 49.5625 77.277344 49.421875 76.554688 49.113281 C 75.941406 48.835938 75.421875 48.429688 75.003906 47.898438 C 74.585938 47.347656 74.273438 46.742188 74.074219 46.082031 C 73.855469 45.351562 73.738281 44.605469 73.730469 43.84375 C 73.714844 43.410156 73.714844 42.96875 73.730469 42.519531 C 73.742188 41.773438 73.855469 41.042969 74.066406 40.328125 C 74.257812 39.644531 74.566406 39.023438 74.996094 38.464844 C 75.417969 37.925781 75.941406 37.507812 76.554688 37.214844 C 77.273438 36.890625 78.027344 36.742188 78.8125 36.765625 C 79.632812 36.738281 80.40625 36.914062 81.132812 37.296875 C 81.734375 37.621094 82.25 38.054688 82.671875 38.59375 L 82.671875 37.613281 C 82.664062 37.449219 82.71875 37.308594 82.828125 37.191406 C 82.945312 37.070312 83.082031 37.015625 83.25 37.023438 L 84.75 37.023438 C 84.910156 37.023438 85.046875 37.078125 85.160156 37.195312 C 85.273438 37.3125 85.324219 37.453125 85.316406 37.613281 L 85.316406 49.242188 C 85.339844 50.265625 85.148438 51.242188 84.738281 52.175781 C 84.335938 53.035156 83.71875 53.683594 82.886719 54.125 C 81.839844 54.644531 80.734375 54.875 79.574219 54.828125 Z M 79.5 47.316406 C 80.132812 47.347656 80.710938 47.179688 81.230469 46.8125 C 81.667969 46.472656 81.996094 46.050781 82.210938 45.535156 C 82.425781 45.035156 82.546875 44.507812 82.574219 43.960938 C 82.574219 43.753906 82.601562 43.488281 82.601562 43.15625 C 82.601562 42.824219 82.601562 42.566406 82.574219 42.375 C 82.546875 41.824219 82.425781 41.292969 82.210938 40.785156 C 82 40.269531 81.671875 39.847656 81.230469 39.511719 C 80.707031 39.152344 80.132812 38.988281 79.5 39.019531 C 78.863281 38.988281 78.277344 39.152344 77.746094 39.511719 C 77.304688 39.839844 76.992188 40.265625 76.804688 40.785156 C 76.609375 41.355469 76.496094 41.941406 76.472656 42.542969 C 76.472656 42.96875 76.472656 43.347656 76.472656 43.75 C 76.5 44.347656 76.609375 44.929688 76.804688 45.496094 C 76.988281 46.023438 77.300781 46.457031 77.746094 46.792969 C 78.273438 47.164062 78.859375 47.339844 79.5 47.316406 Z M 79.5 47.316406 " fill-opacity="1" fill-rule="nonzero"/></g><path fill="#203053" d="M 88.671875 49.53125 C 88.507812 49.539062 88.367188 49.488281 88.25 49.375 C 88.144531 49.265625 88.089844 49.132812 88.09375 48.976562 L 88.09375 37.566406 C 88.089844 37.414062 88.144531 37.28125 88.25 37.167969 C 88.367188 37.058594 88.507812 37.007812 88.671875 37.015625 L 90.199219 37.015625 C 90.351562 37.007812 90.484375 37.058594 90.59375 37.167969 C 90.703125 37.277344 90.753906 37.410156 90.75 37.566406 L 90.75 38.605469 C 91.191406 38.058594 91.726562 37.621094 92.347656 37.292969 C 93.105469 36.910156 93.90625 36.734375 94.753906 36.765625 C 95.675781 36.738281 96.535156 36.964844 97.328125 37.441406 C 98.0625 37.898438 98.613281 38.523438 98.976562 39.3125 C 99.382812 40.226562 99.578125 41.183594 99.550781 42.1875 L 99.550781 48.980469 C 99.554688 49.136719 99.5 49.273438 99.382812 49.378906 C 99.265625 49.492188 99.125 49.542969 98.964844 49.535156 L 97.3125 49.535156 C 97.160156 49.539062 97.03125 49.488281 96.921875 49.378906 C 96.8125 49.269531 96.761719 49.136719 96.765625 48.980469 L 96.765625 42.308594 C 96.820312 41.410156 96.570312 40.609375 96.015625 39.902344 C 95.429688 39.277344 94.707031 38.996094 93.855469 39.054688 C 93.007812 39.011719 92.28125 39.292969 91.679688 39.902344 C 91.066406 40.585938 90.785156 41.390625 90.835938 42.308594 L 90.835938 48.976562 C 90.839844 49.136719 90.785156 49.269531 90.667969 49.375 C 90.550781 49.488281 90.410156 49.539062 90.246094 49.53125 Z M 88.671875 49.53125 " fill-opacity="1" fill-rule="nonzero"/><path fill="#203053" d="M 105.828125 49.769531 C 105.054688 49.78125 104.316406 49.617188 103.621094 49.277344 C 102.984375 48.972656 102.460938 48.535156 102.046875 47.964844 C 101.648438 47.410156 101.453125 46.789062 101.460938 46.105469 C 101.449219 45.578125 101.5625 45.078125 101.796875 44.605469 C 102.035156 44.132812 102.367188 43.746094 102.800781 43.445312 C 103.863281 42.703125 105.042969 42.265625 106.328125 42.132812 L 109.691406 41.625 L 109.691406 41.03125 C 109.734375 40.386719 109.546875 39.820312 109.121094 39.335938 C 108.738281 38.933594 108.101562 38.734375 107.210938 38.734375 C 106.652344 38.710938 106.125 38.835938 105.636719 39.117188 C 105.25 39.375 104.96875 39.71875 104.796875 40.152344 C 104.691406 40.375 104.515625 40.480469 104.273438 40.46875 L 102.796875 40.46875 C 102.640625 40.480469 102.507812 40.433594 102.398438 40.324219 C 102.308594 40.210938 102.265625 40.082031 102.269531 39.9375 C 102.3125 39.617188 102.410156 39.316406 102.566406 39.035156 C 102.789062 38.625 103.078125 38.269531 103.4375 37.976562 C 103.902344 37.597656 104.414062 37.316406 104.976562 37.125 C 105.707031 36.875 106.457031 36.757812 107.226562 36.777344 C 108.078125 36.753906 108.90625 36.878906 109.710938 37.152344 C 110.320312 37.359375 110.851562 37.691406 111.308594 38.148438 C 111.703125 38.566406 111.996094 39.046875 112.179688 39.59375 C 112.363281 40.144531 112.453125 40.710938 112.453125 41.292969 L 112.453125 48.976562 C 112.457031 49.136719 112.402344 49.269531 112.285156 49.375 C 112.167969 49.488281 112.027344 49.539062 111.863281 49.53125 L 110.335938 49.53125 C 110.183594 49.539062 110.050781 49.488281 109.941406 49.375 C 109.832031 49.265625 109.78125 49.132812 109.789062 48.976562 L 109.789062 47.964844 C 109.554688 48.292969 109.273438 48.574219 108.949219 48.816406 C 108.566406 49.113281 108.144531 49.339844 107.6875 49.503906 C 107.082031 49.695312 106.460938 49.78125 105.828125 49.769531 Z M 106.496094 47.722656 C 107.078125 47.730469 107.625 47.597656 108.140625 47.328125 C 108.65625 47.042969 109.046875 46.636719 109.3125 46.105469 C 109.621094 45.449219 109.761719 44.757812 109.730469 44.035156 L 109.730469 43.441406 L 107.152344 43.863281 C 106.324219 43.9375 105.550781 44.183594 104.832031 44.605469 C 104.332031 44.894531 104.070312 45.328125 104.054688 45.90625 C 104.039062 46.296875 104.15625 46.636719 104.410156 46.929688 C 104.664062 47.207031 104.964844 47.40625 105.320312 47.53125 C 105.699219 47.667969 106.09375 47.730469 106.496094 47.722656 Z M 106.496094 47.722656 " fill-opacity="1" fill-rule="nonzero"/><path fill="#203053" d="M 115.734375 49.53125 C 115.578125 49.539062 115.449219 49.488281 115.339844 49.375 C 115.230469 49.265625 115.179688 49.132812 115.1875 48.976562 L 115.1875 32.996094 C 115.179688 32.839844 115.230469 32.707031 115.339844 32.59375 C 115.449219 32.484375 115.578125 32.433594 115.734375 32.4375 L 117.304688 32.4375 C 117.460938 32.433594 117.59375 32.484375 117.703125 32.59375 C 117.808594 32.707031 117.859375 32.839844 117.851562 32.996094 L 117.851562 48.976562 C 117.859375 49.132812 117.808594 49.265625 117.703125 49.375 C 117.59375 49.488281 117.460938 49.539062 117.304688 49.53125 Z M 115.734375 49.53125 " fill-opacity="1" fill-rule="nonzero"/></svg>