<svg xmlns="http://www.w3.org/2000/svg" xmlns:xlink="http://www.w3.org/1999/xlink" width="220" zoomAndPan="magnify" viewBox="0 0 165 82.499998" height="110" preserveAspectRatio="xMidYMid meet" version="1.0"><defs><clipPath id="8ad03cdad7"><path d="M 0.496094 0 L 164.503906 0 L 164.503906 82.003906 L 0.496094 82.003906 Z M 0.496094 0 " clip-rule="nonzero"/></clipPath><clipPath id="adae3f4809"><path d="M 95 29 L 156.300781 29 L 156.300781 49 L 95 49 Z M 95 29 " clip-rule="nonzero"/></clipPath><clipPath id="94e77116ce"><path d="M 8.699219 27.984375 L 29 27.984375 L 29 49 L 8.699219 49 Z M 8.699219 27.984375 " clip-rule="nonzero"/></clipPath><clipPath id="c384194b88"><path d="M 57 35 L 71 35 L 71 54.078125 L 57 54.078125 Z M 57 35 " clip-rule="nonzero"/></clipPath></defs><g clip-path="url(#8ad03cdad7)"><path fill="#ffffff" d="M 0.496094 0 L 164.503906 0 L 164.503906 82.003906 L 0.496094 82.003906 Z M 0.496094 0 " fill-opacity="1" fill-rule="nonzero"/></g><g clip-path="url(#adae3f4809)"><path fill="#5f6368" d="M 104.789062 48.230469 C 102.140625 48.230469 99.929688 47.339844 98.15625 45.554688 C 96.378906 43.773438 95.496094 41.546875 95.507812 38.882812 C 95.507812 36.210938 96.390625 33.996094 98.15625 32.226562 C 99.917969 30.429688 102.128906 29.527344 104.789062 29.527344 C 107.480469 29.527344 109.664062 30.503906 111.34375 32.453125 L 109.699219 34.054688 C 109.109375 33.300781 108.378906 32.722656 107.515625 32.3125 C 106.652344 31.902344 105.742188 31.707031 104.789062 31.726562 C 103.859375 31.703125 102.964844 31.867188 102.101562 32.214844 C 101.238281 32.5625 100.480469 33.066406 99.824219 33.726562 C 98.511719 35.046875 97.855469 36.769531 97.855469 38.890625 C 97.855469 41.015625 98.511719 42.726562 99.828125 44.019531 C 100.480469 44.683594 101.238281 45.191406 102.101562 45.542969 C 102.960938 45.890625 103.859375 46.054688 104.789062 46.03125 C 106.863281 46.03125 108.671875 45.15625 110.210938 43.40625 L 111.878906 45.039062 C 111.023438 46.066406 109.984375 46.855469 108.761719 47.398438 C 107.496094 47.96875 106.171875 48.246094 104.789062 48.230469 Z M 115.667969 29.929688 L 115.667969 47.824219 L 113.371094 47.824219 L 113.371094 29.929688 Z M 117.324219 41.707031 C 117.324219 39.820312 117.914062 38.261719 119.097656 37.03125 C 119.6875 36.417969 120.375 35.949219 121.160156 35.628906 C 121.945312 35.304688 122.761719 35.15625 123.609375 35.179688 C 124.457031 35.15625 125.269531 35.304688 126.050781 35.625 C 126.832031 35.949219 127.515625 36.417969 128.097656 37.03125 C 129.296875 38.265625 129.894531 39.824219 129.894531 41.707031 C 129.894531 43.589844 129.296875 45.148438 128.097656 46.382812 C 127.515625 46.996094 126.832031 47.464844 126.050781 47.785156 C 125.269531 48.105469 124.457031 48.257812 123.609375 48.230469 C 122.761719 48.253906 121.945312 48.105469 121.160156 47.785156 C 120.375 47.464844 119.6875 46.996094 119.097656 46.382812 C 117.914062 45.148438 117.324219 43.589844 117.324219 41.707031 Z M 119.621094 41.707031 C 119.621094 43.023438 120.003906 44.089844 120.765625 44.90625 C 120.949219 45.101562 121.152344 45.273438 121.371094 45.429688 C 121.585938 45.582031 121.820312 45.710938 122.0625 45.816406 C 122.308594 45.921875 122.5625 46 122.824219 46.054688 C 123.082031 46.109375 123.347656 46.136719 123.613281 46.136719 C 123.878906 46.136719 124.144531 46.109375 124.40625 46.054688 C 124.664062 46 124.917969 45.921875 125.164062 45.816406 C 125.40625 45.710938 125.640625 45.582031 125.859375 45.429688 C 126.074219 45.273438 126.277344 45.101562 126.460938 44.90625 C 127.222656 44.089844 127.605469 43.023438 127.605469 41.707031 C 127.605469 40.386719 127.222656 39.328125 126.453125 38.53125 C 126.273438 38.332031 126.074219 38.15625 125.855469 38 C 125.636719 37.84375 125.40625 37.710938 125.164062 37.605469 C 124.917969 37.496094 124.664062 37.414062 124.402344 37.359375 C 124.140625 37.304688 123.875 37.277344 123.609375 37.277344 C 123.339844 37.277344 123.074219 37.304688 122.8125 37.359375 C 122.550781 37.414062 122.296875 37.496094 122.054688 37.605469 C 121.808594 37.710938 121.578125 37.84375 121.359375 38 C 121.140625 38.15625 120.941406 38.332031 120.761719 38.53125 C 120 39.347656 119.621094 40.40625 119.621094 41.707031 Z M 142.257812 47.824219 L 140.0625 47.824219 L 140.0625 46.132812 L 139.960938 46.132812 C 139.5625 46.78125 139.027344 47.28125 138.355469 47.632812 C 137.652344 48.03125 136.902344 48.230469 136.097656 48.230469 C 134.597656 48.230469 133.449219 47.800781 132.640625 46.945312 C 131.835938 46.089844 131.433594 44.867188 131.433594 43.28125 L 131.433594 35.578125 L 133.726562 35.578125 L 133.726562 43.132812 C 133.777344 45.125 134.78125 46.121094 136.742188 46.121094 C 137.191406 46.125 137.617188 46.03125 138.023438 45.835938 C 138.425781 45.636719 138.765625 45.363281 139.039062 45.007812 C 139.675781 44.234375 139.984375 43.347656 139.960938 42.34375 L 139.960938 35.578125 L 142.257812 35.578125 Z M 149.707031 48.226562 C 148.917969 48.226562 148.160156 48.0625 147.441406 47.730469 C 146.722656 47.398438 146.105469 46.929688 145.59375 46.324219 C 145.03125 45.6875 144.605469 44.972656 144.3125 44.171875 C 144.019531 43.375 143.882812 42.550781 143.898438 41.703125 C 143.882812 40.851562 144.019531 40.03125 144.3125 39.230469 C 144.605469 38.433594 145.03125 37.71875 145.59375 37.082031 C 146.105469 36.476562 146.722656 36.007812 147.441406 35.675781 C 148.160156 35.34375 148.917969 35.175781 149.707031 35.179688 C 150.574219 35.167969 151.394531 35.359375 152.167969 35.757812 C 152.875 36.105469 153.445312 36.613281 153.875 37.28125 L 153.976562 37.28125 L 153.875 35.578125 L 153.875 29.929688 L 156.167969 29.929688 L 156.167969 47.824219 L 153.976562 47.824219 L 153.976562 46.132812 L 153.875 46.132812 C 153.445312 46.796875 152.875 47.304688 152.167969 47.65625 C 151.394531 48.050781 150.574219 48.242188 149.707031 48.230469 Z M 150.082031 46.128906 C 150.613281 46.140625 151.121094 46.042969 151.605469 45.828125 C 152.089844 45.613281 152.507812 45.304688 152.851562 44.902344 C 153.601562 44.085938 153.976562 43.015625 153.976562 41.699219 C 154.019531 40.492188 153.644531 39.433594 152.851562 38.527344 C 152.507812 38.117188 152.09375 37.804688 151.609375 37.585938 C 151.125 37.367188 150.613281 37.261719 150.082031 37.273438 C 149.550781 37.265625 149.042969 37.371094 148.558594 37.589844 C 148.074219 37.808594 147.660156 38.121094 147.316406 38.527344 C 146.523438 39.433594 146.148438 40.492188 146.191406 41.699219 C 146.191406 43.003906 146.566406 44.0625 147.316406 44.878906 C 147.660156 45.28125 148.074219 45.59375 148.558594 45.8125 C 149.042969 46.03125 149.550781 46.140625 150.082031 46.132812 Z M 150.082031 46.128906 " fill-opacity="1" fill-rule="nonzero"/></g><g clip-path="url(#94e77116ce)"><path fill="#4285f4" d="M 19.066406 48.226562 C 13.503906 48.226562 8.832031 43.683594 8.832031 38.105469 C 8.832031 32.53125 13.503906 27.984375 19.066406 27.984375 C 20.359375 27.964844 21.605469 28.195312 22.804688 28.679688 C 24.003906 29.164062 25.0625 29.863281 25.980469 30.773438 L 24.035156 32.726562 C 23.371094 32.082031 22.605469 31.585938 21.746094 31.246094 C 20.886719 30.902344 19.992188 30.738281 19.066406 30.75 C 18.589844 30.75 18.113281 30.796875 17.644531 30.890625 C 17.171875 30.988281 16.71875 31.125 16.273438 31.3125 C 15.832031 31.496094 15.414062 31.726562 15.015625 31.996094 C 14.617188 32.261719 14.253906 32.570312 13.914062 32.910156 C 13.578125 33.253906 13.28125 33.625 13.015625 34.027344 C 12.753906 34.429688 12.53125 34.855469 12.355469 35.300781 C 12.175781 35.746094 12.042969 36.203125 11.953125 36.675781 C 11.867188 37.148438 11.824219 37.625 11.832031 38.105469 C 11.828125 38.585938 11.867188 39.0625 11.953125 39.535156 C 12.042969 40.007812 12.175781 40.46875 12.355469 40.914062 C 12.535156 41.359375 12.753906 41.78125 13.019531 42.183594 C 13.28125 42.585938 13.582031 42.957031 13.917969 43.300781 C 14.253906 43.644531 14.621094 43.949219 15.015625 44.21875 C 15.414062 44.488281 15.832031 44.714844 16.277344 44.898438 C 16.71875 45.085938 17.175781 45.226562 17.644531 45.320312 C 18.113281 45.414062 18.589844 45.460938 19.066406 45.460938 C 21.699219 45.460938 23.199219 44.402344 24.15625 43.4375 C 24.945312 42.648438 25.460938 41.511719 25.660156 39.957031 L 18.996094 39.957031 L 18.996094 37.195312 L 28.347656 37.195312 C 28.453125 37.765625 28.503906 38.339844 28.496094 38.917969 C 28.496094 40.992188 27.929688 43.5625 26.109375 45.386719 C 24.332031 47.238281 22.066406 48.226562 19.066406 48.226562 Z M 19.066406 48.226562 " fill-opacity="1" fill-rule="nonzero"/></g><path fill="#ea4335" d="M 42.488281 41.710938 C 42.488281 42.140625 42.445312 42.5625 42.363281 42.984375 C 42.277344 43.402344 42.15625 43.8125 41.992188 44.207031 C 41.828125 44.601562 41.628906 44.980469 41.390625 45.335938 C 41.152344 45.691406 40.882812 46.019531 40.582031 46.324219 C 40.28125 46.625 39.949219 46.898438 39.597656 47.132812 C 39.242188 47.371094 38.867188 47.574219 38.472656 47.738281 C 38.078125 47.902344 37.667969 48.023438 37.25 48.109375 C 36.832031 48.191406 36.410156 48.234375 35.980469 48.234375 C 35.554688 48.234375 35.132812 48.191406 34.710938 48.109375 C 34.292969 48.023438 33.886719 47.902344 33.492188 47.738281 C 33.097656 47.574219 32.722656 47.371094 32.367188 47.132812 C 32.011719 46.898438 31.683594 46.625 31.382812 46.324219 C 31.078125 46.019531 30.808594 45.691406 30.574219 45.335938 C 30.335938 44.980469 30.136719 44.601562 29.972656 44.207031 C 29.808594 43.8125 29.683594 43.402344 29.601562 42.984375 C 29.519531 42.5625 29.476562 42.140625 29.476562 41.710938 C 29.476562 41.28125 29.519531 40.855469 29.601562 40.4375 C 29.683594 40.015625 29.808594 39.609375 29.972656 39.210938 C 30.136719 38.816406 30.335938 38.441406 30.574219 38.082031 C 30.8125 37.726562 31.082031 37.398438 31.382812 37.09375 C 31.6875 36.789062 32.015625 36.519531 32.371094 36.28125 C 32.726562 36.042969 33.101562 35.84375 33.496094 35.679688 C 33.890625 35.515625 34.296875 35.390625 34.71875 35.304688 C 35.136719 35.222656 35.5625 35.179688 35.988281 35.179688 C 36.417969 35.179688 36.839844 35.222656 37.257812 35.304688 C 37.679688 35.390625 38.085938 35.515625 38.480469 35.679688 C 38.875 35.84375 39.25 36.042969 39.605469 36.28125 C 39.960938 36.519531 40.289062 36.789062 40.59375 37.09375 C 40.894531 37.398438 41.164062 37.726562 41.402344 38.082031 C 41.640625 38.441406 41.839844 38.816406 42.003906 39.210938 C 42.167969 39.609375 42.292969 40.015625 42.375 40.4375 C 42.460938 40.855469 42.5 41.28125 42.5 41.710938 Z M 39.636719 41.710938 C 39.636719 39.367188 37.941406 37.761719 35.976562 37.761719 C 34.011719 37.761719 32.3125 39.367188 32.3125 41.710938 C 32.3125 44.054688 34.011719 45.652344 35.976562 45.652344 C 37.941406 45.652344 39.636719 44.019531 39.636719 41.710938 Z M 39.636719 41.710938 " fill-opacity="1" fill-rule="nonzero"/><path fill="#fbbc04" d="M 56.660156 41.710938 C 56.660156 42.140625 56.621094 42.5625 56.535156 42.984375 C 56.453125 43.402344 56.328125 43.8125 56.164062 44.207031 C 56.003906 44.601562 55.800781 44.980469 55.566406 45.335938 C 55.328125 45.691406 55.058594 46.019531 54.753906 46.324219 C 54.453125 46.625 54.125 46.898438 53.769531 47.132812 C 53.414062 47.371094 53.039062 47.574219 52.644531 47.738281 C 52.25 47.902344 51.84375 48.023438 51.425781 48.109375 C 51.003906 48.191406 50.582031 48.234375 50.15625 48.234375 C 49.726562 48.234375 49.304688 48.191406 48.886719 48.109375 C 48.46875 48.023438 48.0625 47.902344 47.664062 47.738281 C 47.269531 47.574219 46.894531 47.371094 46.542969 47.132812 C 46.1875 46.898438 45.859375 46.625 45.554688 46.324219 C 45.253906 46.019531 44.984375 45.691406 44.746094 45.335938 C 44.507812 44.980469 44.308594 44.601562 44.144531 44.207031 C 43.980469 43.8125 43.859375 43.402344 43.773438 42.984375 C 43.691406 42.5625 43.648438 42.140625 43.648438 41.710938 C 43.648438 41.28125 43.691406 40.859375 43.773438 40.4375 C 43.859375 40.019531 43.980469 39.609375 44.144531 39.214844 C 44.308594 38.820312 44.507812 38.441406 44.746094 38.085938 C 44.984375 37.730469 45.253906 37.402344 45.554688 37.097656 C 45.859375 36.796875 46.1875 36.523438 46.542969 36.289062 C 46.894531 36.050781 47.269531 35.847656 47.664062 35.683594 C 48.0625 35.519531 48.46875 35.398438 48.886719 35.3125 C 49.304688 35.230469 49.726562 35.1875 50.15625 35.1875 C 50.582031 35.1875 51.003906 35.230469 51.425781 35.3125 C 51.84375 35.398438 52.25 35.519531 52.644531 35.683594 C 53.039062 35.847656 53.414062 36.050781 53.769531 36.289062 C 54.125 36.523438 54.453125 36.796875 54.753906 37.097656 C 55.058594 37.402344 55.328125 37.730469 55.566406 38.085938 C 55.800781 38.441406 56.003906 38.820312 56.164062 39.214844 C 56.328125 39.609375 56.453125 40.019531 56.535156 40.4375 C 56.621094 40.859375 56.660156 41.28125 56.660156 41.710938 Z M 53.808594 41.710938 C 53.808594 39.367188 52.117188 37.761719 50.148438 37.761719 C 48.183594 37.761719 46.488281 39.367188 46.488281 41.710938 C 46.488281 44.054688 48.183594 45.652344 50.148438 45.652344 C 52.117188 45.652344 53.808594 44.019531 53.808594 41.710938 Z M 53.808594 41.710938 " fill-opacity="1" fill-rule="nonzero"/><g clip-path="url(#c384194b88)"><path fill="#4285f4" d="M 70.21875 35.59375 L 70.21875 47.28125 C 70.21875 52.097656 67.390625 54.078125 64.042969 54.078125 C 63.429688 54.082031 62.824219 53.992188 62.234375 53.816406 C 61.644531 53.636719 61.09375 53.378906 60.578125 53.035156 C 60.066406 52.691406 59.613281 52.28125 59.222656 51.800781 C 58.832031 51.324219 58.519531 50.796875 58.289062 50.226562 L 60.773438 49.183594 C 61.214844 50.246094 62.296875 51.503906 64.042969 51.503906 C 66.183594 51.503906 67.515625 50.171875 67.515625 47.679688 L 67.515625 46.738281 L 67.414062 46.738281 C 66.980469 47.226562 66.464844 47.597656 65.867188 47.855469 C 65.269531 48.117188 64.644531 48.238281 63.996094 48.21875 C 60.742188 48.21875 57.761719 45.378906 57.761719 41.726562 C 57.761719 38.074219 60.742188 35.183594 63.996094 35.183594 C 64.644531 35.167969 65.265625 35.289062 65.863281 35.542969 C 66.457031 35.796875 66.976562 36.164062 67.414062 36.640625 L 67.515625 36.640625 L 67.515625 35.59375 Z M 67.710938 41.742188 C 67.710938 39.445312 66.183594 37.769531 64.238281 37.769531 C 62.296875 37.769531 60.625 39.445312 60.625 41.742188 C 60.625 44.039062 62.273438 45.652344 64.238281 45.652344 C 66.207031 45.652344 67.710938 44.003906 67.710938 41.734375 Z M 67.710938 41.742188 " fill-opacity="1" fill-rule="nonzero"/></g><path fill="#34a853" d="M 72.261719 28.675781 L 75.125 28.675781 L 75.125 47.824219 L 72.261719 47.824219 Z M 72.261719 28.675781 " fill-opacity="1" fill-rule="nonzero"/><path fill="#ea4335" d="M 86.1875 43.859375 L 88.402344 45.339844 C 87.796875 46.246094 87.015625 46.957031 86.054688 47.46875 C 85.09375 47.980469 84.070312 48.234375 82.980469 48.226562 C 79.292969 48.226562 76.535156 45.363281 76.535156 41.707031 C 76.535156 37.828125 79.316406 35.183594 82.660156 35.183594 C 86.007812 35.183594 87.679688 37.875 88.222656 39.328125 L 88.523438 40.078125 L 79.851562 43.683594 C 80.515625 44.992188 81.546875 45.660156 83 45.660156 C 84.453125 45.660156 85.449219 44.945312 86.1875 43.859375 Z M 79.375 41.511719 L 85.179688 39.09375 C 84.859375 38.277344 83.898438 37.710938 82.765625 37.710938 C 82.289062 37.730469 81.832031 37.847656 81.402344 38.050781 C 80.96875 38.257812 80.59375 38.539062 80.273438 38.898438 C 79.953125 39.253906 79.71875 39.660156 79.5625 40.113281 C 79.40625 40.566406 79.34375 41.035156 79.375 41.511719 Z M 79.375 41.511719 " fill-opacity="1" fill-rule="nonzero"/></svg>