<?xml version="1.0" encoding="UTF-8"?>
<svg xmlns="http://www.w3.org/2000/svg" xmlns:xlink="http://www.w3.org/1999/xlink" width="165pt" height="82.499998pt" viewBox="0 0 165 82.499998" version="1.2">
<defs>
<clipPath id="clip1">
  <path d="M 0.496094 0 L 164.503906 0 L 164.503906 82.003906 L 0.496094 82.003906 Z M 0.496094 0 "/>
</clipPath>
<clipPath id="clip2">
  <path d="M 12.210938 8.222656 L 78.148438 8.222656 L 78.148438 73.710938 L 12.210938 73.710938 Z M 12.210938 8.222656 "/>
</clipPath>
<clipPath id="clip3">
  <path d="M 12.210938 40.964844 C 12.210938 59.050781 26.941406 73.710938 45.109375 73.710938 C 63.277344 73.710938 78.007812 59.050781 78.007812 40.964844 C 78.019531 22.882812 63.292969 8.222656 45.109375 8.222656 C 26.925781 8.222656 12.210938 22.882812 12.210938 40.964844 "/>
</clipPath>
<clipPath id="clip4">
  <path d="M 61.566406 -20.132812 L 106.507812 57.34375 L 28.667969 102.082031 L -16.277344 24.601562 Z M 61.566406 -20.132812 "/>
</clipPath>
<linearGradient id="linear0" gradientUnits="userSpaceOnUse" x1="-5681.481205" y1="2059.9031" x2="-5673.409" y2="2059.9031" gradientTransform="matrix(5.567518,9.59863,9.643225,-5.541772,11790.283593,65952.178895)">
<stop offset="0" style="stop-color:rgb(0%,55.699158%,85.099792%);stop-opacity:1;"/>
<stop offset="0.125" style="stop-color:rgb(0%,55.699158%,85.099792%);stop-opacity:1;"/>
<stop offset="0.140625" style="stop-color:rgb(0.0320435%,55.636597%,85.044861%);stop-opacity:1;"/>
<stop offset="0.15625" style="stop-color:rgb(0.138855%,55.427551%,84.864807%);stop-opacity:1;"/>
<stop offset="0.171875" style="stop-color:rgb(0.289917%,55.136108%,84.613037%);stop-opacity:1;"/>
<stop offset="0.1875" style="stop-color:rgb(0.442505%,54.84314%,84.361267%);stop-opacity:1;"/>
<stop offset="0.203125" style="stop-color:rgb(0.593567%,54.551697%,84.109497%);stop-opacity:1;"/>
<stop offset="0.21875" style="stop-color:rgb(0.744629%,54.258728%,83.857727%);stop-opacity:1;"/>
<stop offset="0.234375" style="stop-color:rgb(0.897217%,53.965759%,83.605957%);stop-opacity:1;"/>
<stop offset="0.25" style="stop-color:rgb(1.048279%,53.674316%,83.354187%);stop-opacity:1;"/>
<stop offset="0.265625" style="stop-color:rgb(1.199341%,53.381348%,83.102417%);stop-opacity:1;"/>
<stop offset="0.28125" style="stop-color:rgb(1.350403%,53.089905%,82.850647%);stop-opacity:1;"/>
<stop offset="0.296875" style="stop-color:rgb(1.502991%,52.796936%,82.598877%);stop-opacity:1;"/>
<stop offset="0.3125" style="stop-color:rgb(1.654053%,52.503967%,82.347107%);stop-opacity:1;"/>
<stop offset="0.328125" style="stop-color:rgb(1.805115%,52.212524%,82.095337%);stop-opacity:1;"/>
<stop offset="0.34375" style="stop-color:rgb(1.957703%,51.919556%,81.843567%);stop-opacity:1;"/>
<stop offset="0.359375" style="stop-color:rgb(2.108765%,51.628113%,81.591797%);stop-opacity:1;"/>
<stop offset="0.375" style="stop-color:rgb(2.259827%,51.335144%,81.340027%);stop-opacity:1;"/>
<stop offset="0.390625" style="stop-color:rgb(2.410889%,51.043701%,81.088257%);stop-opacity:1;"/>
<stop offset="0.40625" style="stop-color:rgb(2.563477%,50.750732%,80.836487%);stop-opacity:1;"/>
<stop offset="0.421875" style="stop-color:rgb(2.714539%,50.457764%,80.584717%);stop-opacity:1;"/>
<stop offset="0.4375" style="stop-color:rgb(2.865601%,50.166321%,80.332947%);stop-opacity:1;"/>
<stop offset="0.453125" style="stop-color:rgb(3.018188%,49.873352%,80.081177%);stop-opacity:1;"/>
<stop offset="0.46875" style="stop-color:rgb(3.16925%,49.581909%,79.829407%);stop-opacity:1;"/>
<stop offset="0.484375" style="stop-color:rgb(3.320312%,49.28894%,79.577637%);stop-opacity:1;"/>
<stop offset="0.5" style="stop-color:rgb(3.471375%,48.997498%,79.325867%);stop-opacity:1;"/>
<stop offset="0.515625" style="stop-color:rgb(3.623962%,48.704529%,79.074097%);stop-opacity:1;"/>
<stop offset="0.53125" style="stop-color:rgb(3.775024%,48.41156%,78.822327%);stop-opacity:1;"/>
<stop offset="0.546875" style="stop-color:rgb(3.926086%,48.120117%,78.570557%);stop-opacity:1;"/>
<stop offset="0.5625" style="stop-color:rgb(4.078674%,47.827148%,78.318787%);stop-opacity:1;"/>
<stop offset="0.578125" style="stop-color:rgb(4.229736%,47.535706%,78.067017%);stop-opacity:1;"/>
<stop offset="0.59375" style="stop-color:rgb(4.380798%,47.242737%,77.815247%);stop-opacity:1;"/>
<stop offset="0.609375" style="stop-color:rgb(4.53186%,46.951294%,77.563477%);stop-opacity:1;"/>
<stop offset="0.625" style="stop-color:rgb(4.684448%,46.658325%,77.311707%);stop-opacity:1;"/>
<stop offset="0.640625" style="stop-color:rgb(4.83551%,46.365356%,77.059937%);stop-opacity:1;"/>
<stop offset="0.65625" style="stop-color:rgb(4.986572%,46.073914%,76.808167%);stop-opacity:1;"/>
<stop offset="0.671875" style="stop-color:rgb(5.13916%,45.780945%,76.556396%);stop-opacity:1;"/>
<stop offset="0.6875" style="stop-color:rgb(5.290222%,45.489502%,76.304626%);stop-opacity:1;"/>
<stop offset="0.703125" style="stop-color:rgb(5.441284%,45.196533%,76.052856%);stop-opacity:1;"/>
<stop offset="0.71875" style="stop-color:rgb(5.592346%,44.903564%,75.801086%);stop-opacity:1;"/>
<stop offset="0.734375" style="stop-color:rgb(5.744934%,44.612122%,75.549316%);stop-opacity:1;"/>
<stop offset="0.75" style="stop-color:rgb(5.895996%,44.319153%,75.297546%);stop-opacity:1;"/>
<stop offset="0.765625" style="stop-color:rgb(6.047058%,44.02771%,75.045776%);stop-opacity:1;"/>
<stop offset="0.78125" style="stop-color:rgb(6.199646%,43.734741%,74.794006%);stop-opacity:1;"/>
<stop offset="0.796875" style="stop-color:rgb(6.350708%,43.443298%,74.542236%);stop-opacity:1;"/>
<stop offset="0.8125" style="stop-color:rgb(6.50177%,43.15033%,74.290466%);stop-opacity:1;"/>
<stop offset="0.828125" style="stop-color:rgb(6.652832%,42.857361%,74.038696%);stop-opacity:1;"/>
<stop offset="0.84375" style="stop-color:rgb(6.80542%,42.565918%,73.786926%);stop-opacity:1;"/>
<stop offset="0.859375" style="stop-color:rgb(6.956482%,42.272949%,73.535156%);stop-opacity:1;"/>
<stop offset="0.875" style="stop-color:rgb(7.066345%,42.063904%,73.353577%);stop-opacity:1;"/>
<stop offset="1" style="stop-color:rgb(7.099915%,41.999817%,73.298645%);stop-opacity:1;"/>
</linearGradient>
<clipPath id="clip5">
  <path d="M 133 36 L 153.109375 36 L 153.109375 62 L 133 62 Z M 133 36 "/>
</clipPath>
<clipPath id="clip6">
  <path d="M 94 67 L 104 67 L 104 73.800781 L 94 73.800781 Z M 94 67 "/>
</clipPath>
<clipPath id="clip7">
  <path d="M 102 67 L 108 67 L 108 73.800781 L 102 73.800781 Z M 102 67 "/>
</clipPath>
<clipPath id="clip8">
  <path d="M 106 65 L 113 65 L 113 73.800781 L 106 73.800781 Z M 106 65 "/>
</clipPath>
<clipPath id="clip9">
  <path d="M 113 65 L 122 65 L 122 73.800781 L 113 73.800781 Z M 113 65 "/>
</clipPath>
<clipPath id="clip10">
  <path d="M 121 67 L 131 67 L 131 73.800781 L 121 73.800781 Z M 121 67 "/>
</clipPath>
<clipPath id="clip11">
  <path d="M 130 67 L 137 67 L 137 73.800781 L 130 73.800781 Z M 130 67 "/>
</clipPath>
<clipPath id="clip12">
  <path d="M 136 65 L 143 65 L 143 73.800781 L 136 73.800781 Z M 136 65 "/>
</clipPath>
<clipPath id="clip13">
  <path d="M 141 65 L 145 65 L 145 73.800781 L 141 73.800781 Z M 141 65 "/>
</clipPath>
<clipPath id="clip14">
  <path d="M 145 65 L 148 65 L 148 73.800781 L 145 73.800781 Z M 145 65 "/>
</clipPath>
<clipPath id="clip15">
  <path d="M 147 67 L 153.109375 67 L 153.109375 73.800781 L 147 73.800781 Z M 147 67 "/>
</clipPath>
</defs>
<g id="surface1">
<g clip-path="url(#clip1)" clip-rule="nonzero">
<path style=" stroke:none;fill-rule:nonzero;fill:rgb(100%,100%,100%);fill-opacity:1;" d="M 0.496094 0 L 164.503906 0 L 164.503906 89.457031 L 0.496094 89.457031 Z M 0.496094 0 "/>
<path style=" stroke:none;fill-rule:nonzero;fill:rgb(100%,100%,100%);fill-opacity:1;" d="M 0.496094 0 L 164.503906 0 L 164.503906 82.003906 L 0.496094 82.003906 Z M 0.496094 0 "/>
<path style=" stroke:none;fill-rule:nonzero;fill:rgb(100%,100%,100%);fill-opacity:1;" d="M 0.496094 0 L 164.503906 0 L 164.503906 82.003906 L 0.496094 82.003906 Z M 0.496094 0 "/>
</g>
<g clip-path="url(#clip2)" clip-rule="nonzero">
<g clip-path="url(#clip3)" clip-rule="nonzero">
<g clip-path="url(#clip4)" clip-rule="nonzero">
<path style=" stroke:none;fill-rule:nonzero;fill:url(#linear0);" d="M -16.277344 24.59375 L 61.570312 -20.144531 L 106.511719 57.339844 L 28.664062 102.074219 Z M -16.277344 24.59375 "/>
</g>
</g>
</g>
<path style=" stroke:none;fill-rule:nonzero;fill:rgb(11.369324%,11.369324%,10.5896%);fill-opacity:1;" d="M 79.21875 52.628906 C 79.21875 55.554688 79.933594 57.660156 81.347656 58.949219 C 82.773438 60.242188 84.65625 60.898438 87.011719 60.898438 C 87.597656 60.898438 88.226562 60.867188 88.910156 60.8125 C 89.59375 60.753906 90.179688 60.640625 90.679688 60.484375 C 90.738281 60.242188 90.765625 60.015625 90.765625 59.816406 L 90.765625 59.148438 C 90.765625 57.972656 90.59375 56.75 90.265625 55.5 C 89.996094 55.554688 89.710938 55.613281 89.410156 55.640625 C 89.125 55.667969 88.851562 55.683594 88.609375 55.683594 C 88.054688 55.683594 87.597656 55.625 87.242188 55.5 C 86.871094 55.371094 86.570312 55.15625 86.339844 54.832031 C 86.113281 54.519531 85.941406 54.0625 85.839844 53.480469 C 85.726562 52.898438 85.683594 52.144531 85.683594 51.195312 L 85.683594 27.269531 C 84.585938 27.085938 83.515625 27 82.472656 27 C 81.402344 27 80.320312 27.085938 79.21875 27.269531 Z M 79.21875 52.628906 "/>
<path style=" stroke:none;fill-rule:nonzero;fill:rgb(11.369324%,11.369324%,10.5896%);fill-opacity:1;" d="M 101.511719 55.824219 C 101.171875 55.882812 100.785156 55.953125 100.3125 56.023438 C 99.855469 56.09375 99.398438 56.136719 98.945312 56.136719 C 98.542969 56.136719 98.074219 56.109375 97.546875 56.066406 C 97.003906 56.023438 96.503906 55.898438 96.03125 55.699219 C 95.5625 55.5 95.148438 55.1875 94.820312 54.761719 C 94.476562 54.332031 94.320312 53.722656 94.320312 52.941406 C 94.320312 51.75 94.761719 50.894531 95.632812 50.371094 C 96.503906 49.832031 97.6875 49.574219 99.1875 49.574219 C 99.515625 49.574219 99.898438 49.601562 100.328125 49.644531 C 100.757812 49.6875 101.15625 49.746094 101.527344 49.800781 L 101.527344 55.824219 Z M 101.511719 45.652344 C 100.441406 45.570312 99.457031 45.511719 98.574219 45.511719 C 97.34375 45.511719 96.132812 45.640625 94.90625 45.894531 C 93.675781 46.152344 92.5625 46.578125 91.578125 47.175781 C 90.582031 47.769531 89.78125 48.550781 89.152344 49.546875 C 88.523438 50.539062 88.210938 51.761719 88.210938 53.226562 C 88.210938 54.6875 88.46875 55.910156 88.96875 56.917969 C 89.46875 57.929688 90.195312 58.738281 91.121094 59.378906 C 92.050781 60.015625 93.175781 60.472656 94.476562 60.742188 C 95.773438 61.011719 97.203125 61.152344 98.773438 61.152344 C 100.699219 61.152344 102.425781 60.996094 103.953125 60.699219 C 105.480469 60.398438 106.777344 60.074219 107.847656 59.746094 L 107.847656 46.066406 C 107.847656 42.726562 106.949219 40.285156 105.167969 38.765625 C 103.382812 37.242188 100.882812 36.476562 97.714844 36.476562 C 96.546875 36.476562 95.304688 36.589844 93.949219 36.789062 C 92.605469 37.003906 91.25 37.34375 89.910156 37.796875 C 89.910156 38.777344 90.007812 39.601562 90.222656 40.3125 C 90.4375 41.007812 90.75 41.761719 91.179688 42.542969 C 93.050781 41.902344 94.804688 41.589844 96.460938 41.589844 C 97.230469 41.589844 97.914062 41.632812 98.542969 41.734375 C 99.171875 41.816406 99.699219 42.003906 100.128906 42.257812 C 100.554688 42.515625 100.898438 42.871094 101.140625 43.324219 C 101.382812 43.777344 101.511719 44.375 101.511719 45.101562 Z M 101.511719 45.652344 "/>
<path style=" stroke:none;fill-rule:nonzero;fill:rgb(11.369324%,11.369324%,10.5896%);fill-opacity:1;" d="M 108.949219 60.613281 C 110.046875 60.796875 111.101562 60.882812 112.117188 60.882812 C 113.160156 60.882812 114.230469 60.796875 115.328125 60.613281 L 115.328125 37.03125 L 105.878906 37.03125 C 105.695312 37.828125 105.59375 38.621094 105.59375 39.445312 C 105.59375 39.84375 105.621094 40.253906 105.664062 40.695312 C 105.707031 41.136719 105.78125 41.546875 105.878906 41.945312 L 108.949219 41.945312 Z M 109.675781 33.253906 C 110.289062 33.28125 110.832031 33.292969 111.332031 33.292969 C 111.84375 33.292969 112.417969 33.28125 113 33.253906 C 113.601562 33.222656 114.15625 33.167969 114.671875 33.066406 C 114.757812 32.554688 114.828125 32.03125 114.855469 31.519531 C 114.886719 31.007812 114.898438 30.496094 114.898438 30.011719 C 114.898438 29.5 114.886719 28.988281 114.855469 28.480469 C 114.828125 27.980469 114.757812 27.46875 114.671875 26.945312 C 114.15625 26.859375 113.585938 26.789062 112.972656 26.746094 C 112.359375 26.703125 111.789062 26.675781 111.273438 26.675781 C 110.789062 26.675781 110.246094 26.703125 109.648438 26.746094 C 109.046875 26.789062 108.492188 26.859375 107.976562 26.945312 C 107.792969 28.011719 107.707031 29.03125 107.707031 30 C 107.707031 31.007812 107.804688 32.015625 107.976562 33.054688 C 108.492188 33.152344 109.0625 33.210938 109.675781 33.253906 "/>
<path style=" stroke:none;fill-rule:nonzero;fill:rgb(11.369324%,11.369324%,10.5896%);fill-opacity:1;" d="M 116.285156 60.613281 C 117.324219 60.796875 118.398438 60.882812 119.496094 60.882812 C 120.59375 60.882812 121.679688 60.796875 122.75 60.613281 L 122.75 27.269531 C 121.679688 27.085938 120.59375 27 119.496094 27 C 118.398438 27 117.324219 27.085938 116.285156 27.269531 Z M 130.542969 60.613281 C 131.742188 60.796875 132.867188 60.882812 133.9375 60.882812 C 135.109375 60.882812 136.308594 60.796875 137.5625 60.613281 L 130.5 47.925781 L 136.550781 37.015625 C 135.453125 36.832031 134.324219 36.746094 133.152344 36.746094 C 131.925781 36.746094 130.726562 36.832031 129.527344 37.015625 L 123.664062 48.238281 Z M 130.542969 60.613281 "/>
<g clip-path="url(#clip5)" clip-rule="nonzero">
<path style=" stroke:none;fill-rule:nonzero;fill:rgb(11.369324%,11.369324%,10.5896%);fill-opacity:1;" d="M 147.113281 55.824219 C 146.769531 55.882812 146.382812 55.953125 145.925781 56.023438 C 145.472656 56.09375 145.015625 56.136719 144.558594 56.136719 C 144.15625 56.136719 143.6875 56.109375 143.160156 56.066406 C 142.628906 56.023438 142.117188 55.898438 141.644531 55.699219 C 141.175781 55.5 140.761719 55.1875 140.433594 54.761719 C 140.089844 54.332031 139.933594 53.722656 139.933594 52.941406 C 139.933594 51.75 140.375 50.894531 141.246094 50.371094 C 142.117188 49.832031 143.300781 49.574219 144.800781 49.574219 C 145.144531 49.574219 145.511719 49.601562 145.941406 49.644531 C 146.371094 49.6875 146.769531 49.746094 147.125 49.800781 L 147.125 55.824219 Z M 147.113281 45.652344 C 146.042969 45.570312 145.070312 45.511719 144.171875 45.511719 C 142.945312 45.511719 141.730469 45.640625 140.503906 45.894531 C 139.277344 46.152344 138.179688 46.578125 137.179688 47.175781 C 136.179688 47.769531 135.378906 48.550781 134.753906 49.546875 C 134.125 50.539062 133.808594 51.761719 133.808594 53.226562 C 133.808594 54.6875 134.066406 55.910156 134.566406 56.917969 C 135.066406 57.929688 135.792969 58.738281 136.722656 59.378906 C 137.648438 60.015625 138.761719 60.472656 140.074219 60.742188 C 141.375 61.011719 142.800781 61.152344 144.371094 61.152344 C 146.296875 61.152344 148.027344 60.996094 149.550781 60.699219 C 151.078125 60.398438 152.378906 60.074219 153.449219 59.746094 L 153.449219 46.066406 C 153.449219 42.726562 152.550781 40.285156 150.765625 38.765625 C 148.980469 37.242188 146.5 36.476562 143.316406 36.476562 C 142.160156 36.476562 140.902344 36.589844 139.546875 36.789062 C 138.207031 37.003906 136.851562 37.34375 135.507812 37.796875 C 135.507812 38.777344 135.621094 39.601562 135.835938 40.3125 C 136.050781 41.007812 136.363281 41.761719 136.808594 42.542969 C 138.675781 41.902344 140.433594 41.589844 142.089844 41.589844 C 142.859375 41.589844 143.542969 41.632812 144.171875 41.734375 C 144.800781 41.816406 145.328125 42.003906 145.757812 42.257812 C 146.183594 42.515625 146.527344 42.871094 146.769531 43.324219 C 147.011719 43.777344 147.140625 44.375 147.140625 45.101562 L 147.140625 45.652344 Z M 147.113281 45.652344 "/>
</g>
<g clip-path="url(#clip6)" clip-rule="nonzero">
<path style=" stroke:none;fill-rule:nonzero;fill:rgb(0%,55.688477%,85.099792%);fill-opacity:1;" d="M 94.917969 67.671875 C 95.21875 67.632812 95.53125 67.601562 95.875 67.601562 C 96.003906 67.601562 96.132812 67.601562 96.273438 67.617188 C 96.417969 67.617188 96.546875 67.644531 96.675781 67.671875 L 96.832031 71.820312 L 98.558594 67.671875 C 98.800781 67.632812 99.058594 67.601562 99.34375 67.601562 C 99.628906 67.601562 99.914062 67.632812 100.183594 67.671875 L 100.511719 71.835938 L 101.640625 69.234375 C 101.769531 68.9375 101.855469 68.667969 101.914062 68.441406 C 101.953125 68.214844 101.984375 68.015625 101.984375 67.859375 C 101.984375 67.816406 101.984375 67.789062 101.96875 67.757812 L 101.96875 67.671875 C 102.226562 67.632812 102.511719 67.601562 102.855469 67.601562 C 103.167969 67.601562 103.46875 67.632812 103.738281 67.671875 L 103.738281 67.714844 C 103.738281 67.957031 103.695312 68.214844 103.609375 68.484375 C 103.523438 68.753906 103.382812 69.066406 103.195312 69.449219 L 101.042969 73.640625 C 100.898438 73.667969 100.742188 73.683594 100.570312 73.683594 C 100.398438 73.695312 100.242188 73.710938 100.085938 73.710938 C 99.800781 73.710938 99.542969 73.683594 99.285156 73.640625 L 98.945312 69.847656 L 97.300781 73.640625 C 97.160156 73.65625 97.003906 73.667969 96.84375 73.683594 C 96.6875 73.695312 96.515625 73.710938 96.375 73.710938 C 96.246094 73.710938 96.101562 73.695312 95.960938 73.683594 C 95.816406 73.667969 95.675781 73.65625 95.546875 73.640625 Z M 94.917969 67.671875 "/>
</g>
<g clip-path="url(#clip7)" clip-rule="nonzero">
<path style=" stroke:none;fill-rule:evenodd;fill:rgb(0%,55.688477%,85.099792%);fill-opacity:1;" d="M 104.136719 71.382812 C 104.179688 71.75 104.308594 72.019531 104.507812 72.21875 C 104.710938 72.390625 105.007812 72.488281 105.394531 72.488281 C 105.707031 72.488281 105.980469 72.460938 106.207031 72.390625 C 106.449219 72.320312 106.695312 72.234375 106.964844 72.121094 C 107.09375 72.277344 107.164062 72.460938 107.207031 72.6875 C 107.25 72.902344 107.277344 73.128906 107.277344 73.382812 C 107.148438 73.441406 106.992188 73.5 106.820312 73.554688 C 106.652344 73.597656 106.480469 73.640625 106.292969 73.667969 C 106.109375 73.710938 105.921875 73.738281 105.738281 73.753906 C 105.550781 73.78125 105.378906 73.78125 105.238281 73.78125 C 104.765625 73.78125 104.351562 73.726562 104.023438 73.613281 C 103.695312 73.5 103.410156 73.328125 103.183594 73.128906 C 102.96875 72.914062 102.796875 72.660156 102.695312 72.363281 C 102.597656 72.050781 102.539062 71.707031 102.539062 71.339844 C 102.539062 70.871094 102.625 70.402344 102.78125 69.945312 C 102.941406 69.492188 103.167969 69.09375 103.46875 68.738281 C 103.765625 68.371094 104.136719 68.085938 104.550781 67.871094 C 104.980469 67.644531 105.464844 67.53125 106.007812 67.53125 C 106.265625 67.53125 106.492188 67.558594 106.722656 67.632812 C 106.949219 67.6875 107.136719 67.789062 107.308594 67.914062 C 107.464844 68.042969 107.59375 68.199219 107.691406 68.371094 C 107.777344 68.554688 107.835938 68.765625 107.835938 69.023438 C 107.835938 69.363281 107.75 69.675781 107.59375 69.917969 C 107.433594 70.175781 107.207031 70.386719 106.9375 70.570312 C 106.664062 70.742188 106.351562 70.898438 106.007812 71.011719 C 105.664062 71.125 105.308594 71.195312 104.9375 71.253906 Z M 104.796875 70.203125 C 105.09375 70.160156 105.324219 70.101562 105.507812 70.03125 C 105.695312 69.960938 105.835938 69.875 105.953125 69.789062 C 106.066406 69.691406 106.136719 69.605469 106.164062 69.507812 C 106.207031 69.40625 106.222656 69.320312 106.222656 69.222656 C 106.222656 69.078125 106.164062 68.953125 106.066406 68.867188 C 105.964844 68.765625 105.851562 68.726562 105.679688 68.726562 C 105.480469 68.726562 105.292969 68.765625 105.125 68.867188 C 104.964844 68.953125 104.824219 69.066406 104.695312 69.207031 C 104.566406 69.351562 104.46875 69.519531 104.367188 69.71875 C 104.28125 69.902344 104.210938 70.089844 104.167969 70.289062 Z M 104.796875 70.203125 "/>
</g>
<g clip-path="url(#clip8)" clip-rule="nonzero">
<path style=" stroke:none;fill-rule:evenodd;fill:rgb(0%,55.688477%,85.099792%);fill-opacity:1;" d="M 108.75 72.347656 C 108.804688 72.375 108.890625 72.390625 108.976562 72.402344 C 109.078125 72.417969 109.175781 72.417969 109.277344 72.417969 C 109.621094 72.417969 109.90625 72.347656 110.148438 72.191406 C 110.390625 72.035156 110.589844 71.820312 110.746094 71.59375 C 110.902344 71.351562 111.03125 71.082031 111.089844 70.785156 C 111.160156 70.488281 111.203125 70.203125 111.203125 69.933594 C 111.203125 69.664062 111.144531 69.433594 111.03125 69.234375 C 110.917969 69.039062 110.730469 68.9375 110.460938 68.9375 C 110.105469 68.9375 109.804688 69.09375 109.546875 69.390625 C 109.289062 69.691406 109.105469 70.1875 108.992188 70.882812 Z M 107.976562 67.445312 C 108.121094 66.636719 108.191406 66.027344 108.191406 65.613281 C 108.191406 65.527344 108.191406 65.457031 108.175781 65.402344 C 108.175781 65.34375 108.175781 65.273438 108.164062 65.203125 C 108.292969 65.171875 108.449219 65.160156 108.621094 65.160156 C 108.792969 65.144531 108.933594 65.128906 109.0625 65.128906 C 109.289062 65.128906 109.535156 65.160156 109.804688 65.203125 C 109.847656 65.316406 109.863281 65.457031 109.863281 65.640625 C 109.863281 65.984375 109.820312 66.394531 109.71875 66.878906 L 109.433594 68.484375 C 109.519531 68.371094 109.632812 68.257812 109.734375 68.140625 C 109.847656 68.027344 109.976562 67.929688 110.132812 67.828125 C 110.277344 67.746094 110.445312 67.660156 110.648438 67.617188 C 110.847656 67.558594 111.0625 67.53125 111.316406 67.53125 C 111.859375 67.53125 112.273438 67.714844 112.558594 68.085938 C 112.859375 68.453125 113 68.996094 113 69.691406 C 113 70.175781 112.929688 70.644531 112.789062 71.140625 C 112.644531 71.621094 112.417969 72.0625 112.074219 72.460938 C 111.746094 72.859375 111.316406 73.171875 110.773438 73.414062 C 110.234375 73.65625 109.5625 73.78125 108.761719 73.78125 C 108.40625 73.78125 108.0625 73.753906 107.765625 73.695312 C 107.464844 73.640625 107.179688 73.554688 106.90625 73.441406 Z M 107.976562 67.445312 "/>
</g>
<g clip-path="url(#clip9)" clip-rule="nonzero">
<path style=" stroke:none;fill-rule:evenodd;fill:rgb(11.369324%,11.369324%,10.5896%);fill-opacity:1;" d="M 118.609375 68.269531 L 118.640625 68.15625 C 118.683594 67.957031 118.695312 67.789062 118.710938 67.617188 C 118.726562 67.445312 118.726562 67.289062 118.726562 67.175781 C 118.925781 67.046875 119.167969 66.949219 119.46875 66.90625 C 119.765625 66.851562 120.039062 66.820312 120.292969 66.820312 C 120.335938 66.933594 120.351562 67.078125 120.351562 67.261719 C 120.351562 67.390625 120.335938 67.515625 120.324219 67.660156 C 120.308594 67.800781 120.28125 67.957031 120.25 68.128906 L 120.222656 68.285156 L 121.152344 68.285156 C 121.136719 68.511719 121.109375 68.726562 121.066406 68.921875 C 121.035156 69.109375 120.992188 69.308594 120.921875 69.535156 L 120.007812 69.535156 L 119.765625 70.941406 C 119.667969 71.496094 119.496094 71.964844 119.253906 72.332031 C 119.023438 72.703125 118.738281 73 118.398438 73.226562 C 118.066406 73.441406 117.683594 73.597656 117.269531 73.683594 C 116.855469 73.78125 116.414062 73.824219 115.941406 73.824219 C 115.554688 73.824219 115.183594 73.78125 114.855469 73.695312 C 114.527344 73.613281 114.230469 73.484375 113.972656 73.300781 C 113.730469 73.128906 113.53125 72.886719 113.386719 72.601562 C 113.246094 72.320312 113.171875 71.976562 113.171875 71.582031 C 113.171875 71.238281 113.230469 70.925781 113.328125 70.65625 C 113.445312 70.371094 113.574219 70.117188 113.742188 69.902344 C 113.914062 69.675781 114.101562 69.492188 114.328125 69.335938 C 114.542969 69.179688 114.757812 69.066406 114.972656 68.980469 C 114.757812 68.851562 114.570312 68.667969 114.414062 68.425781 C 114.273438 68.183594 114.199219 67.902344 114.199219 67.589844 C 114.199219 67.203125 114.285156 66.863281 114.441406 66.566406 C 114.601562 66.265625 114.8125 66.027344 115.085938 65.828125 C 115.355469 65.628906 115.65625 65.472656 116 65.371094 C 116.339844 65.273438 116.683594 65.214844 117.039062 65.214844 C 117.296875 65.214844 117.554688 65.230469 117.824219 65.273438 C 118.097656 65.316406 118.339844 65.371094 118.554688 65.472656 C 118.539062 65.683594 118.511719 65.898438 118.453125 66.082031 C 118.410156 66.28125 118.324219 66.480469 118.183594 66.691406 C 117.941406 66.609375 117.738281 66.550781 117.570312 66.535156 C 117.410156 66.507812 117.242188 66.496094 117.070312 66.496094 C 116.914062 66.496094 116.742188 66.507812 116.597656 66.550781 C 116.457031 66.59375 116.3125 66.652344 116.199219 66.734375 C 116.085938 66.808594 116 66.921875 115.925781 67.046875 C 115.855469 67.175781 115.828125 67.320312 115.828125 67.503906 C 115.828125 67.730469 115.898438 67.914062 116.027344 68.070312 C 116.171875 68.214844 116.398438 68.285156 116.710938 68.285156 L 118.609375 68.285156 Z M 118.398438 69.507812 L 116.941406 69.507812 C 116.65625 69.507812 116.441406 69.535156 116.253906 69.578125 C 116.085938 69.621094 115.941406 69.664062 115.84375 69.71875 C 115.554688 69.859375 115.34375 70.058594 115.171875 70.332031 C 115 70.601562 114.914062 70.914062 114.914062 71.28125 C 114.914062 71.621094 115.027344 71.894531 115.257812 72.078125 C 115.484375 72.277344 115.800781 72.363281 116.199219 72.363281 C 116.527344 72.363281 116.796875 72.320312 117.039062 72.21875 C 117.269531 72.121094 117.46875 72.007812 117.625 71.835938 C 117.78125 71.664062 117.925781 71.464844 118.027344 71.238281 C 118.125 71.011719 118.195312 70.757812 118.238281 70.472656 Z M 118.398438 69.507812 "/>
</g>
<g clip-path="url(#clip10)" clip-rule="nonzero">
<path style=" stroke:none;fill-rule:nonzero;fill:rgb(11.369324%,11.369324%,10.5896%);fill-opacity:1;" d="M 121.507812 67.671875 C 121.621094 67.644531 121.722656 67.632812 121.835938 67.632812 C 121.949219 67.617188 122.066406 67.601562 122.191406 67.601562 C 122.320312 67.601562 122.4375 67.617188 122.535156 67.632812 C 122.636719 67.644531 122.734375 67.660156 122.847656 67.671875 C 122.878906 67.714844 122.890625 67.773438 122.90625 67.84375 C 122.933594 67.914062 122.949219 67.984375 122.964844 68.070312 C 122.976562 68.140625 122.992188 68.226562 122.992188 68.296875 C 123.007812 68.371094 123.019531 68.441406 123.019531 68.496094 C 123.078125 68.382812 123.164062 68.269531 123.261719 68.15625 C 123.363281 68.042969 123.476562 67.945312 123.621094 67.84375 C 123.761719 67.746094 123.917969 67.671875 124.089844 67.617188 C 124.261719 67.558594 124.460938 67.53125 124.675781 67.53125 C 125.617188 67.53125 126.21875 67.886719 126.472656 68.597656 C 126.632812 68.3125 126.84375 68.070312 127.117188 67.859375 C 127.402344 67.644531 127.757812 67.53125 128.203125 67.53125 C 128.886719 67.53125 129.386719 67.714844 129.699219 68.101562 C 130.027344 68.46875 130.183594 69.050781 130.183594 69.847656 L 130.183594 73.640625 C 129.898438 73.683594 129.628906 73.710938 129.359375 73.710938 C 129.085938 73.710938 128.816406 73.683594 128.53125 73.640625 L 128.53125 70.273438 C 128.53125 69.859375 128.472656 69.535156 128.371094 69.320312 C 128.273438 69.09375 128.058594 68.980469 127.746094 68.980469 C 127.617188 68.980469 127.488281 68.996094 127.34375 69.039062 C 127.214844 69.078125 127.101562 69.152344 127.003906 69.25 C 126.902344 69.351562 126.816406 69.492188 126.746094 69.691406 C 126.6875 69.875 126.644531 70.117188 126.644531 70.414062 L 126.644531 73.640625 C 126.359375 73.683594 126.089844 73.710938 125.816406 73.710938 C 125.546875 73.710938 125.277344 73.683594 124.992188 73.640625 L 124.992188 70.273438 C 124.992188 69.859375 124.933594 69.535156 124.832031 69.320312 C 124.734375 69.09375 124.519531 68.980469 124.207031 68.980469 C 124.078125 68.980469 123.949219 68.996094 123.804688 69.039062 C 123.675781 69.078125 123.546875 69.152344 123.449219 69.265625 C 123.347656 69.378906 123.261719 69.519531 123.207031 69.734375 C 123.148438 69.933594 123.121094 70.1875 123.121094 70.515625 L 123.121094 73.640625 C 122.835938 73.683594 122.5625 73.710938 122.292969 73.710938 C 122.023438 73.710938 121.75 73.683594 121.464844 73.640625 L 121.464844 67.671875 Z M 121.507812 67.671875 "/>
</g>
<g clip-path="url(#clip11)" clip-rule="nonzero">
<path style=" stroke:none;fill-rule:evenodd;fill:rgb(11.369324%,11.369324%,10.5896%);fill-opacity:1;" d="M 133.3125 73.78125 C 132.824219 73.78125 132.398438 73.710938 132.039062 73.554688 C 131.683594 73.398438 131.382812 73.171875 131.140625 72.902344 C 130.914062 72.617188 130.726562 72.289062 130.613281 71.90625 C 130.5 71.539062 130.441406 71.125 130.441406 70.683594 C 130.441406 70.246094 130.5 69.832031 130.613281 69.449219 C 130.742188 69.066406 130.914062 68.738281 131.140625 68.453125 C 131.382812 68.171875 131.683594 67.945312 132.039062 67.789062 C 132.398438 67.632812 132.824219 67.546875 133.3125 67.546875 C 133.796875 67.546875 134.222656 67.632812 134.582031 67.789062 C 134.953125 67.945312 135.253906 68.171875 135.480469 68.453125 C 135.722656 68.738281 135.894531 69.066406 136.007812 69.449219 C 136.121094 69.832031 136.179688 70.246094 136.179688 70.683594 C 136.179688 71.125 136.121094 71.539062 136.007812 71.90625 C 135.894531 72.289062 135.707031 72.617188 135.480469 72.902344 C 135.238281 73.1875 134.9375 73.398438 134.582031 73.554688 C 134.222656 73.710938 133.808594 73.78125 133.3125 73.78125 M 133.3125 72.53125 C 133.738281 72.53125 134.054688 72.375 134.238281 72.0625 C 134.4375 71.738281 134.523438 71.28125 134.523438 70.671875 C 134.523438 70.074219 134.425781 69.605469 134.238281 69.292969 C 134.054688 68.964844 133.738281 68.808594 133.3125 68.808594 C 132.882812 68.808594 132.582031 68.964844 132.382812 69.292969 C 132.199219 69.605469 132.097656 70.058594 132.097656 70.671875 C 132.097656 71.269531 132.183594 71.738281 132.382812 72.0625 C 132.582031 72.375 132.898438 72.53125 133.3125 72.53125 "/>
</g>
<g clip-path="url(#clip12)" clip-rule="nonzero">
<path style=" stroke:none;fill-rule:evenodd;fill:rgb(11.369324%,11.369324%,10.5896%);fill-opacity:1;" d="M 136.550781 65.203125 C 136.835938 65.160156 137.09375 65.128906 137.363281 65.128906 C 137.636719 65.128906 137.90625 65.160156 138.191406 65.203125 L 138.191406 68.257812 C 138.304688 68.042969 138.507812 67.871094 138.777344 67.746094 C 139.046875 67.601562 139.363281 67.53125 139.703125 67.53125 C 140.046875 67.53125 140.375 67.589844 140.675781 67.714844 C 140.976562 67.84375 141.230469 68.027344 141.445312 68.285156 C 141.660156 68.527344 141.832031 68.839844 141.960938 69.222656 C 142.089844 69.589844 142.144531 70.046875 142.144531 70.558594 C 142.144531 71.054688 142.074219 71.507812 141.917969 71.90625 C 141.761719 72.304688 141.53125 72.632812 141.246094 72.914062 C 140.945312 73.199219 140.589844 73.414062 140.160156 73.570312 C 139.734375 73.710938 139.261719 73.78125 138.71875 73.78125 C 138.546875 73.78125 138.363281 73.769531 138.179688 73.753906 C 137.992188 73.738281 137.808594 73.710938 137.605469 73.683594 C 137.40625 73.65625 137.222656 73.625 137.050781 73.582031 C 136.878906 73.539062 136.707031 73.484375 136.566406 73.425781 L 136.566406 65.203125 Z M 138.191406 72.347656 C 138.292969 72.375 138.378906 72.402344 138.476562 72.402344 C 138.589844 72.417969 138.691406 72.417969 138.804688 72.417969 C 139.304688 72.417969 139.703125 72.277344 139.992188 71.976562 C 140.277344 71.679688 140.417969 71.226562 140.417969 70.601562 C 140.417969 70.046875 140.332031 69.621094 140.148438 69.335938 C 139.976562 69.039062 139.660156 68.894531 139.25 68.894531 C 138.933594 68.894531 138.675781 68.996094 138.476562 69.207031 C 138.277344 69.40625 138.191406 69.734375 138.191406 70.160156 Z M 138.191406 72.347656 "/>
</g>
<g clip-path="url(#clip13)" clip-rule="nonzero">
<path style=" stroke:none;fill-rule:evenodd;fill:rgb(11.369324%,11.369324%,10.5896%);fill-opacity:1;" d="M 142.816406 68.921875 L 142.046875 68.921875 C 142.015625 68.824219 142.003906 68.726562 141.988281 68.609375 C 141.972656 68.496094 141.972656 68.382812 141.972656 68.285156 C 141.972656 68.070312 142.003906 67.871094 142.046875 67.671875 L 144.441406 67.671875 L 144.441406 73.640625 C 144.15625 73.683594 143.886719 73.710938 143.628906 73.710938 C 143.371094 73.710938 143.101562 73.683594 142.832031 73.640625 L 142.832031 68.921875 Z M 142.574219 66.664062 C 142.53125 66.410156 142.503906 66.140625 142.503906 65.898438 C 142.503906 65.65625 142.53125 65.402344 142.574219 65.128906 C 142.703125 65.101562 142.84375 65.089844 142.988281 65.089844 C 143.144531 65.074219 143.289062 65.058594 143.402344 65.058594 C 143.53125 65.058594 143.671875 65.074219 143.828125 65.089844 C 143.988281 65.101562 144.128906 65.117188 144.257812 65.128906 C 144.285156 65.257812 144.300781 65.386719 144.300781 65.527344 C 144.316406 65.65625 144.316406 65.785156 144.316406 65.910156 C 144.316406 66.039062 144.316406 66.167969 144.300781 66.296875 C 144.285156 66.421875 144.273438 66.550781 144.257812 66.691406 C 144.128906 66.722656 143.988281 66.734375 143.828125 66.734375 C 143.6875 66.75 143.542969 66.75 143.414062 66.75 C 143.289062 66.75 143.160156 66.75 143 66.734375 C 142.84375 66.707031 142.703125 66.691406 142.574219 66.664062 "/>
</g>
<g clip-path="url(#clip14)" clip-rule="nonzero">
<path style=" stroke:none;fill-rule:nonzero;fill:rgb(11.369324%,11.369324%,10.5896%);fill-opacity:1;" d="M 145.085938 65.203125 C 145.371094 65.160156 145.640625 65.128906 145.914062 65.128906 C 146.171875 65.128906 146.441406 65.160156 146.726562 65.203125 L 146.726562 71.269531 C 146.726562 71.507812 146.742188 71.695312 146.753906 71.851562 C 146.785156 71.992188 146.828125 72.105469 146.882812 72.191406 C 146.941406 72.261719 147.027344 72.320312 147.113281 72.347656 C 147.210938 72.375 147.328125 72.390625 147.453125 72.390625 C 147.511719 72.390625 147.582031 72.390625 147.65625 72.375 C 147.726562 72.363281 147.8125 72.363281 147.867188 72.347656 C 147.953125 72.660156 147.996094 72.972656 147.996094 73.269531 L 147.996094 73.441406 C 147.996094 73.484375 147.984375 73.539062 147.96875 73.597656 C 147.839844 73.640625 147.699219 73.667969 147.511719 73.683594 C 147.339844 73.695312 147.183594 73.710938 147.039062 73.710938 C 146.441406 73.710938 145.96875 73.554688 145.597656 73.226562 C 145.242188 72.902344 145.070312 72.363281 145.070312 71.621094 L 145.070312 65.203125 Z M 145.085938 65.203125 "/>
</g>
<g clip-path="url(#clip15)" clip-rule="nonzero">
<path style=" stroke:none;fill-rule:evenodd;fill:rgb(11.369324%,11.369324%,10.5896%);fill-opacity:1;" d="M 149.265625 71.167969 C 149.296875 71.621094 149.46875 71.964844 149.753906 72.175781 C 150.050781 72.390625 150.4375 72.488281 150.910156 72.488281 C 151.164062 72.488281 151.4375 72.460938 151.707031 72.417969 C 151.992188 72.363281 152.25 72.289062 152.492188 72.207031 C 152.578125 72.363281 152.648438 72.546875 152.707031 72.757812 C 152.765625 72.972656 152.808594 73.199219 152.808594 73.457031 C 152.207031 73.683594 151.523438 73.796875 150.765625 73.796875 C 150.210938 73.796875 149.722656 73.726562 149.324219 73.570312 C 148.925781 73.414062 148.609375 73.199219 148.355469 72.929688 C 148.109375 72.644531 147.925781 72.320312 147.796875 71.949219 C 147.683594 71.566406 147.625 71.152344 147.625 70.714844 C 147.625 70.273438 147.683594 69.859375 147.8125 69.476562 C 147.941406 69.09375 148.109375 68.753906 148.355469 68.46875 C 148.597656 68.183594 148.894531 67.957031 149.253906 67.800781 C 149.609375 67.632812 150.039062 67.546875 150.523438 67.546875 C 150.9375 67.546875 151.308594 67.617188 151.636719 67.773438 C 151.964844 67.914062 152.234375 68.113281 152.464844 68.371094 C 152.691406 68.625 152.878906 68.921875 152.992188 69.277344 C 153.105469 69.621094 153.164062 70.003906 153.164062 70.402344 C 153.164062 70.542969 153.148438 70.699219 153.136719 70.839844 C 153.121094 70.984375 153.121094 71.097656 153.105469 71.183594 L 149.265625 71.183594 Z M 151.621094 70.015625 C 151.609375 69.648438 151.507812 69.351562 151.308594 69.121094 C 151.121094 68.894531 150.867188 68.78125 150.523438 68.78125 C 150.136719 68.78125 149.839844 68.894531 149.636719 69.109375 C 149.4375 69.320312 149.324219 69.632812 149.28125 70.015625 Z M 151.621094 70.015625 "/>
</g>
<path style=" stroke:none;fill-rule:nonzero;fill:rgb(100%,100%,100%);fill-opacity:1;" d="M 33.777344 17.511719 C 34.246094 18.804688 35.675781 19.457031 36.972656 18.988281 C 38.273438 18.519531 38.929688 17.101562 38.457031 15.808594 C 37.988281 14.515625 36.558594 13.859375 35.261719 14.328125 C 33.976562 14.8125 33.304688 16.234375 33.777344 17.511719 "/>
<path style=" stroke:none;fill-rule:nonzero;fill:rgb(100%,100%,100%);fill-opacity:1;" d="M 63.335938 43.679688 C 62.949219 44.503906 62.648438 45.339844 62.449219 46.179688 L 65.089844 45.78125 C 66.375 45.582031 67.429688 45.3125 68.246094 45 C 69.058594 44.671875 69.699219 44.332031 70.171875 43.933594 C 70.640625 43.550781 70.96875 43.152344 71.140625 42.742188 C 71.3125 42.34375 71.398438 41.933594 71.398438 41.535156 C 71.398438 40.894531 71.183594 40.371094 70.769531 39.972656 C 70.34375 39.574219 69.785156 39.359375 69.070312 39.359375 C 68.1875 39.359375 67.386719 39.558594 66.660156 39.941406 C 65.933594 40.328125 65.289062 40.851562 64.746094 41.492188 C 64.191406 42.117188 63.734375 42.855469 63.335938 43.679688 M 75.636719 56.621094 C 75.09375 58.011719 74.46875 59.261719 73.753906 60.457031 C 73.039062 60.65625 72.3125 60.828125 71.542969 60.96875 C 70.726562 61.125 69.914062 61.238281 69.101562 61.324219 C 68.285156 61.410156 67.558594 61.453125 66.917969 61.453125 C 64.847656 61.453125 63.078125 61.195312 61.609375 60.699219 C 60.136719 60.1875 58.910156 59.476562 57.953125 58.554688 C 56.984375 57.628906 56.285156 56.492188 55.8125 55.15625 C 55.355469 53.824219 55.128906 52.34375 55.128906 50.726562 C 55.128906 49.488281 55.257812 48.269531 55.511719 47.058594 L 48.421875 60.839844 C 47.804688 60.941406 47.121094 61.011719 46.363281 61.066406 C 45.609375 61.125 44.878906 61.140625 44.210938 61.140625 C 42.996094 61.140625 41.828125 61.039062 40.699219 60.839844 L 39.230469 44.203125 L 32.0625 60.839844 C 31.421875 60.910156 30.738281 60.96875 30.039062 61.039062 C 29.324219 61.109375 28.625 61.140625 27.953125 61.140625 C 27.382812 61.140625 26.769531 61.109375 26.128906 61.066406 C 25.484375 61.011719 24.886719 60.941406 24.34375 60.839844 L 21.644531 34.699219 C 22.972656 34.503906 24.355469 34.402344 25.8125 34.402344 C 26.382812 34.402344 26.96875 34.417969 27.570312 34.460938 C 28.167969 34.488281 28.738281 34.574219 29.324219 34.714844 L 30.039062 52.871094 L 37.601562 34.714844 C 38.65625 34.515625 39.800781 34.417969 41.054688 34.417969 C 42.3125 34.417969 43.539062 34.515625 44.765625 34.714844 L 46.195312 52.925781 L 51.117188 41.546875 C 51.6875 40.226562 52.089844 39.0625 52.289062 38.054688 C 52.488281 37.046875 52.585938 36.191406 52.585938 35.523438 C 52.585938 35.355469 52.574219 35.199219 52.558594 35.070312 C 52.542969 34.941406 52.515625 34.816406 52.515625 34.714844 C 53.628906 34.515625 54.886719 34.417969 56.339844 34.417969 C 57.726562 34.417969 59.097656 34.515625 60.136719 34.714844 L 60.136719 34.914062 C 60.136719 35.992188 60.007812 37.117188 59.636719 38.308594 C 59.550781 38.566406 59.523438 38.835938 59.425781 39.121094 C 60.695312 37.65625 62.207031 36.476562 63.992188 35.554688 C 65.875 34.585938 67.972656 34.117188 70.3125 34.117188 C 71.425781 34.117188 72.46875 34.261719 73.4375 34.515625 C 74.410156 34.785156 75.238281 35.199219 75.949219 35.753906 C 76.664062 36.304688 77.222656 36.988281 77.621094 37.796875 C 77.679688 37.910156 77.734375 38.039062 77.777344 38.167969 C 77.964844 39.246094 78.105469 40.355469 78.175781 41.464844 C 78.0625 42.640625 77.734375 43.679688 77.148438 44.574219 C 76.4375 45.683594 75.496094 46.632812 74.308594 47.402344 C 73.125 48.183594 71.785156 48.808594 70.269531 49.304688 C 68.757812 49.789062 67.203125 50.15625 65.574219 50.398438 L 62.164062 50.953125 C 62.363281 52.574219 62.90625 53.78125 63.792969 54.574219 C 64.675781 55.371094 65.960938 55.769531 67.660156 55.769531 C 69.015625 55.769531 70.214844 55.625 71.242188 55.34375 C 72.269531 55.058594 73.367188 54.675781 74.523438 54.207031 C 75.082031 54.84375 75.453125 55.667969 75.636719 56.621094 "/>
</g>
</svg>
